<svg width="84" height="84" viewBox="0 0 84 84" fill="none" xmlns="http://www.w3.org/2000/svg">
<path fill-rule="evenodd" clip-rule="evenodd" d="M39.5084 6.77721e-05C39.3275 0.00307647 39.095 0.0839699 39.0927 0.393945C39.0905 0.70392 39.4114 1.36409 39.3936 2.87909C39.3752 4.45318 39.0145 5.52371 36.8168 8.21669L28.105 18.8914C23.0639 25.0685 19.6374 27.8852 19.6216 34.6235C19.6059 41.3617 23.0666 44.6543 28.1087 48.7128C33.1507 52.7714 39.6824 58.0404 44.7638 62.1677C44.8791 62.2614 45.0228 62.3609 45.2037 62.3579C45.3846 62.3549 45.6172 62.274 45.6194 61.964C45.6216 61.654 45.2749 61.3496 45.2926 59.8346C45.3111 58.2605 45.464 57.3139 47.6754 54.6321L56.8227 43.5384C61.8949 37.3869 65.0341 34.6361 65.0499 27.9785C65.0656 21.3209 61.5757 17.6855 57.108 14.2201C51.2309 9.66161 44.3997 3.91393 39.9483 0.190256C39.8344 0.0949205 39.6893 -0.00294364 39.5084 6.77721e-05Z" fill="url(#paint0_radial_4281_1765)"/>
<path fill-rule="evenodd" clip-rule="evenodd" d="M31.9639 22.8232V25.5661H39.7127V43.457C39.7127 45.9688 41.5025 47.1146 43.2557 47.1146C45.0088 47.1146 46.1208 46.5307 46.1208 46.5307C46.1208 46.5307 45.0517 45.6652 45.0471 41.8182C45.0426 38.0872 45.0466 26.3223 45.0471 24.6629C45.0475 23.0035 43.1131 20.0156 39.9301 20.0156L35.0107 20.0156C33.3984 20.0156 31.9639 21.3288 31.9639 22.8232ZM43.3441 20.0156C43.2424 20.0156 43.1607 20.0974 43.1607 20.199C43.1607 20.3006 43.2626 20.376 43.3441 20.4368C43.6815 20.6887 44.7334 21.4344 45.2356 22.4546C45.7379 23.4748 45.7499 24.4006 46.0762 24.9354C46.4026 25.4702 46.9352 25.5661 47.4985 25.5661H51.5483C52.4432 25.5661 52.7949 24.9646 52.7949 24.2512V20.0156H43.3441Z" fill="white"/>
<path fill-rule="evenodd" clip-rule="evenodd" d="M40.9399 78.0862C40.9399 79.7443 39.9039 80.8627 38.4762 80.8627C37.0485 80.8627 35.9712 79.7961 35.9712 78.0862C35.9712 76.3763 37.014 75.3096 38.4762 75.3096C39.9384 75.3096 40.9399 76.4281 40.9399 78.0862ZM38.4763 72.9688C35.4128 72.964 33.2668 75.1541 33.271 78.0863C33.2752 81.0185 35.378 83.2255 38.4763 83.2242C41.5746 83.223 43.6329 80.9854 43.6331 78.0863C43.6333 75.1872 41.5398 72.9735 38.4763 72.9688Z" fill="#FF0025"/>
<path fill-rule="evenodd" clip-rule="evenodd" d="M14.0758 72.9688C12.6002 72.966 11.4913 73.4235 10.5397 74.3389C9.58809 75.2543 9.0501 76.5081 9.05225 78.2384C9.05437 79.9686 9.78424 81.2783 10.7314 82.043C11.6785 82.8078 12.8104 83.2245 14.404 83.2243C15.9977 83.224 17.2297 82.6459 17.8596 82.2527V79.9077C17.4225 80.2786 16.0875 81.0044 14.7495 81.0044C13.4114 81.0044 12.0299 80.5575 11.6901 78.9008H18.4629C18.4956 78.6407 18.5553 78.2489 18.5539 77.8376C18.5494 76.4997 18.2597 75.6116 17.5741 74.6605C16.8885 73.7094 15.5513 72.9715 14.0758 72.9688ZM13.9478 75.0056C14.5715 75.0056 15.0042 75.2028 15.338 75.5533C15.6718 75.9038 15.8991 76.4263 15.9356 76.9883H11.7387C11.8534 76.4962 11.9859 76.143 12.3556 75.7117C12.7252 75.2804 13.324 75.0056 13.9478 75.0056Z" fill="#FF0025"/>
<path fill-rule="evenodd" clip-rule="evenodd" d="M19.9092 69.0098V81.3642C19.9092 82.6417 20.8195 83.2245 21.7111 83.2245C22.6028 83.2245 23.1684 82.9275 23.1684 82.9275C23.1684 82.9275 22.6246 82.4873 22.6222 80.5307C22.62 78.6331 22.622 71.4985 22.6222 70.6546C22.6225 69.8106 22.084 69.0098 21.0909 69.0098H19.9092Z" fill="#FF0025"/>
<path fill-rule="evenodd" clip-rule="evenodd" d="M0.76416 70.8694V72.2644H4.70526V81.3638C4.70526 82.6413 5.61556 83.224 6.50722 83.224C7.39888 83.224 7.96445 82.9271 7.96445 82.9271C7.96445 82.9271 7.42068 82.4869 7.41833 80.5303C7.41604 78.6327 7.41812 72.649 7.41833 71.805C7.41854 70.961 6.43469 69.4414 4.81581 69.4414L2.31379 69.4414C1.49376 69.4414 0.76416 70.1093 0.76416 70.8694ZM6.55217 69.4414C6.50048 69.4414 6.4589 69.483 6.4589 69.5347C6.4589 69.5864 6.51075 69.6247 6.55217 69.6556C6.72381 69.7837 7.25878 70.163 7.51424 70.6819C7.7697 71.2007 7.77579 71.6716 7.94177 71.9436C8.10775 72.2156 8.37863 72.2644 8.66512 72.2644H10.7249C11.18 72.2644 11.3589 71.9585 11.3589 71.5957V69.4414H6.55217Z" fill="#FF0025"/>
<path fill-rule="evenodd" clip-rule="evenodd" d="M24.4009 69.0098V83.0621H27.1139C27.1139 81.6039 27.114 80.1433 27.1139 78.6193C27.7003 79.2969 29.303 81.1808 29.5067 81.4174C30.2332 82.2614 30.7544 83.0621 31.9429 83.0621H34.1128C34.1128 83.0621 31.4887 80.0298 31.2475 79.7497C30.5963 78.9932 30.0986 78.2719 29.1466 78.1304V78.032C29.9671 77.8457 30.4441 77.1573 31.0359 76.4368C31.266 76.1567 33.7222 73.1244 33.7222 73.1244H30.6497L27.1139 77.4392C27.1139 77.4392 27.1137 71.5755 27.1139 69.0098H24.4009Z" fill="#FF0025"/>
<path fill-rule="evenodd" clip-rule="evenodd" d="M50.1427 72.9688C49.0612 72.9688 48.3478 73.4485 48.0256 73.8195C47.7033 74.1905 47.7559 74.2927 47.6592 74.3639C47.4746 73.6381 46.9822 73.1256 46.1373 73.1256H44.9556V83.0619H47.6686V77.9315C47.6686 76.3222 48.4106 75.2814 49.4622 75.2844C50.5138 75.2875 51.0964 75.8235 51.0964 77.0671V83.0619H53.8095V77.9739C53.8095 76.5276 54.3946 75.2775 55.6446 75.2844C56.8946 75.2914 57.2926 76.111 57.2926 77.1847V83.0619H59.985V76.4704C59.985 75.3469 59.6528 74.5156 58.9739 73.8901C58.295 73.2646 57.5528 72.9688 56.3319 72.9688C55.1111 72.9688 54.248 73.4741 53.5845 74.1949C53.4687 74.3207 53.3593 74.4908 53.2574 74.6324C53.088 74.2721 52.7906 73.8775 52.5358 73.6655C51.8965 73.1336 51.2241 72.9688 50.1427 72.9688Z" fill="#FF0025"/>
<path fill-rule="evenodd" clip-rule="evenodd" d="M65.3616 72.9688C63.72 72.9658 62.8353 73.4788 62.3367 73.9175C61.8382 74.3562 61.3834 74.912 61.3793 76.1149C61.3752 77.3178 62.2558 78.3101 63.993 78.8439C65.7302 79.3776 66.4503 79.5617 66.4446 80.1482C66.4389 80.7347 66.0062 81.1081 64.7847 81.1081C63.5631 81.1081 62.3288 80.5654 61.4395 79.7626V82.2251C62.104 82.7219 63.3889 83.2241 64.9228 83.2243C66.4566 83.2245 67.382 82.8492 67.9155 82.4261C68.449 82.0031 69.0629 81.3319 69.0583 79.9902C69.0537 78.6486 68.1548 77.7659 66.7845 77.2863C65.4142 76.8068 64.1314 76.645 64.0255 76.0848C63.9196 75.5246 64.2378 75.1454 65.2478 75.054C66.2578 74.9625 67.8976 75.483 68.4535 76.0337V73.7556C67.9352 73.4556 67.0032 72.9717 65.3616 72.9688Z" fill="#FF0025"/>
<path fill-rule="evenodd" clip-rule="evenodd" d="M74.815 72.9688C73.3395 72.966 72.2305 73.4235 71.2789 74.3389C70.3273 75.2543 69.7894 76.5081 69.7915 78.2384C69.7936 79.9686 70.5235 81.2783 71.4706 82.043C72.4177 82.8078 73.5496 83.2245 75.1433 83.2243C76.737 83.224 77.969 82.6459 78.5989 82.2527V79.9077C78.1618 80.2786 76.8268 81.0044 75.4887 81.0044C74.1507 81.0044 72.7691 80.5575 72.4294 78.9008H79.2021C79.2349 78.6407 79.2945 78.2489 79.2932 77.8376C79.2886 76.4997 78.9989 75.6116 78.3133 74.6605C77.6277 73.7094 76.2906 72.9715 74.815 72.9688ZM74.687 75.0056C75.3108 75.0056 75.7435 75.2028 76.0772 75.5533C76.411 75.9038 76.6384 76.4263 76.6748 76.9883H72.478C72.5927 76.4962 72.7252 76.143 73.0948 75.7117C73.4645 75.2804 74.0633 75.0056 74.687 75.0056Z" fill="#FF0025"/>
<path fill-rule="evenodd" clip-rule="evenodd" d="M80.6489 69.0098V81.3642C80.6489 82.6417 81.5592 83.2245 82.4509 83.2245C83.3425 83.2245 83.9081 82.9275 83.9081 82.9275C83.9081 82.9275 83.3643 82.4873 83.362 80.5307C83.3597 78.6331 83.362 71.4985 83.362 70.6546C83.362 69.8106 82.8237 69.0098 81.8307 69.0098H80.6489Z" fill="#FF0025"/>
<defs>
<radialGradient id="paint0_radial_4281_1765" cx="0" cy="0" r="1" gradientUnits="userSpaceOnUse" gradientTransform="translate(26.2937 47.3839) rotate(-28.191) scale(41.0275 34.9414)">
<stop stop-color="#FFCC00"/>
<stop offset="0.604356" stop-color="#FF0015"/>
<stop offset="1" stop-color="#C6000F"/>
</radialGradient>
</defs>
</svg>
