<svg width="182" height="54" viewBox="0 0 182 54" fill="none" xmlns="http://www.w3.org/2000/svg">
<path d="M0.419255 36.7753C0.419255 34.1432 0.369068 31.935 0.227051 29.9649H5.20728L5.44112 33.3466H5.57994C6.70647 31.5591 8.7748 29.4449 12.6253 29.4449C15.6312 29.4449 17.9782 31.1427 18.9638 33.6755H19.0599C19.8618 32.4059 20.7993 31.4705 21.8767 30.8106C23.1442 29.919 24.6018 29.4449 26.4832 29.4449C30.2825 29.4449 34.1297 32.0289 34.1297 39.3594V52.834H28.496V40.2008C28.496 36.3984 27.1826 34.1432 24.416 34.1432C22.4395 34.1432 20.9808 35.5538 20.3743 37.1982C20.2334 37.7609 20.0914 38.4646 20.0914 39.1191V52.834H14.4544V39.5911C14.4544 36.3984 13.188 34.1432 10.5121 34.1432C8.35088 34.1432 6.8976 35.8335 6.38079 37.4277C6.14694 37.9958 6.04764 38.6514 6.04764 39.3092V52.834H0.419255V36.7753Z" fill="#003A70"/>
<path d="M50.4484 41.6615C46.3619 41.5654 42.4665 42.4548 42.4665 45.9327C42.4665 48.1836 43.923 49.2204 45.7543 49.2204C48.0511 49.2204 49.7457 47.718 50.2572 46.0747C50.3992 45.6529 50.4484 45.1809 50.4484 44.8072V41.6615ZM56.0821 47.3422C56.0821 49.4073 56.1771 51.419 56.4142 52.8349H51.2001L50.8253 50.2978H50.679C49.2727 52.0832 46.8787 53.3496 43.923 53.3496C39.3187 53.3496 36.7378 50.0223 36.7378 46.5402C36.7378 40.7645 41.8526 37.8558 50.3063 37.9017V37.5259C50.3063 36.0224 49.6945 33.5334 45.6603 33.5334C43.4041 33.5334 41.0528 34.2413 39.5066 35.2269L38.3779 31.4714C40.0683 30.4346 43.0293 29.4458 46.6449 29.4458C53.971 29.4458 56.0821 34.0993 56.0821 39.0752V47.3422Z" fill="#003A70"/>
<path d="M60.0777 36.7753C60.0777 34.1432 60.0254 31.935 59.8887 29.9649H64.9554L65.2384 33.3925H65.3772C66.3628 31.6114 68.855 29.4449 72.6553 29.4449C76.651 29.4449 80.7823 32.0289 80.7823 39.2612V52.834H75.0045V39.9211C75.0045 36.6333 73.7829 34.1432 70.6382 34.1432C68.3371 34.1432 66.744 35.7844 66.13 37.5239C65.9463 38.0428 65.8961 38.7486 65.8961 39.3989V52.834H60.0777V36.7753Z" fill="#003A70"/>
<path d="M100.047 39.496C100.047 39.0293 99.999 38.4655 99.9072 37.9957C99.3893 35.7416 97.5601 33.9114 94.9291 33.9114C91.2195 33.9114 89.1544 37.2002 89.1544 41.4725C89.1544 45.6518 91.2195 48.7079 94.8842 48.7079C97.2291 48.7079 99.2974 47.1094 99.8591 44.6203C99.999 44.1025 100.047 43.5344 100.047 42.9247V39.496ZM105.822 20.7774V46.4004C105.822 48.7474 105.918 51.2855 106.01 52.8328H100.845L100.614 49.2204H100.518C99.1565 51.7522 96.3791 53.3496 93.0497 53.3496C87.6039 53.3496 83.2826 48.7079 83.2826 41.6615C83.2366 34.0043 88.0279 29.4458 93.5217 29.4458C96.6653 29.4458 98.9216 30.7624 99.9531 32.4591H100.047V20.7774H105.822Z" fill="#003A70"/>
<path d="M109.904 29.965H115.735V52.832H109.904V29.965Z" fill="#003A70"/>
<path d="M119.814 37.3392C119.814 34.2405 119.767 32.0301 119.625 29.9671H124.651L124.836 34.3301H125.028C126.153 31.0904 128.831 29.9671 131.273 29.9671C131.836 29.9671 132.165 29.8699 132.635 29.9671V35.0402C132.165 34.9441 131.649 34.8502 130.941 34.8502C128.173 34.8502 126.295 36.6334 125.78 39.2153C125.686 39.7311 125.594 40.3461 125.594 41.006V52.833H119.814V37.3392Z" fill="#003A70"/>
<path d="M135.312 29.965H141.131V52.832H135.312V29.965Z" fill="#003A70"/>
<path fill-rule="evenodd" clip-rule="evenodd" d="M177.065 5.80904C174.191 2.53622 171.142 4.01406 168.707 5.22068C167.687 5.72468 163.985 8.18917 160.316 9.90726C157.702 11.132 153.95 10.7615 151.892 8.22013C151.767 8.06637 148.441 4.03649 148.089 3.53996C145.929 0.830946 140.465 -1.4157 133.936 2.32053C130.438 4.34508 122.195 9.07544 119.113 10.8352C117.24 11.7909 112.892 12.2084 110.436 8.89071C110.395 8.83625 107.168 4.80957 107.039 4.65474C106.944 4.54583 104.86 1.45454 100.214 1.35951C99.5305 1.34242 96.1178 1.32214 92.7831 3.21535C88.3613 5.74497 78.0698 11.6286 78.0698 11.6286C78.0624 11.6286 78.0624 11.6339 78.0624 11.6339C73.8317 14.0557 70.5322 15.9361 70.5322 15.9361L74.4276 20.7241C76.2514 22.9846 80.3581 24.7369 83.9225 22.691C83.9225 22.691 97.0884 15.0669 97.1344 15.0455C102.83 11.9201 107.225 11.9201 110.137 13.084C112.756 14.187 115.033 16.9419 115.033 16.9419C115.033 16.9419 118.011 20.6323 118.534 21.2772C120.228 23.3616 123.029 22.5436 123.029 22.5436C123.029 22.5436 124.063 22.424 125.635 21.495C125.635 21.495 138.385 14.1026 138.392 14.1005C142.443 11.7247 146.159 11.2815 148.055 11.4545C153.999 11.9959 155.847 16.1486 158.427 19.0444C159.945 20.7518 161.312 21.7171 163.406 21.668C164.785 21.6371 166.339 20.8052 166.568 20.6557L181.838 11.841C181.838 11.841 180.273 9.48334 177.065 5.80904Z" fill="#FFB700"/>
</svg>
