<svg width="103" height="84" viewBox="0 0 103 84" fill="none" xmlns="http://www.w3.org/2000/svg">
<path d="M19.6763 73.8385L19.6858 66.7914C24.1035 66.7914 25.7258 66.5706 26.4953 71.9859H26.9608V65.9578L14.9307 65.9625V66.7914H17.0137V82.3011H14.717V83.1182H27.1152V76.7813H26.4953C25.8778 81.5719 24.6617 82.3035 21.2557 82.3035H19.6763V74.7672H20.5907C22.1203 74.8052 22.9896 75.6982 23.3007 78.3275H23.8636L23.8589 70.537C23.8494 70.5513 23.3055 70.537 23.3055 70.537C23.3055 70.575 23.1962 73.886 20.5242 73.8385H19.6763Z" fill="#C51F1B"/>
<path d="M14.7601 74.1491H7.97199V74.9187H10.2973V80.4955C9.90536 81.9111 7.81761 82.5025 7.19532 82.5025C2.86069 82.5025 3.17183 76.1609 3.17183 74.4626C3.17183 72.9093 3.01507 66.418 7.19532 66.418C10.1405 66.418 11.6915 69.3513 12.3114 71.9854H12.7817C12.7817 70.8999 12.8007 65.7364 12.7888 65.7482C12.8007 65.7079 10.7699 67.2066 10.7628 67.1828C10.8079 67.1733 9.8341 65.7957 7.19532 65.7957C2.07927 65.7957 0.202905 70.8999 0.219531 74.4626C0.243282 77.7213 1.74437 83.2744 7.19532 83.2744C8.91017 83.2744 10.1167 82.4027 10.7628 81.4123C10.7699 81.3909 12.9242 83.1129 12.9313 83.12V74.9187H14.7601V74.1491Z" fill="#C51F1B"/>
<path d="M74.0554 76.9285L76.5303 69.5134L79.1691 76.9285H74.0554ZM64.4432 73.9667H61.6596V66.7819H65.2199C67.31 67.0978 67.3955 69.5134 67.3955 70.2805C67.3955 72.1403 66.6189 73.9667 64.4432 73.9667ZM94.0684 76.7813C93.4484 81.5719 92.2348 82.2916 88.8288 82.2916H88.6198V66.7843H90.7883V65.9483H83.6605V66.7843H85.829V82.2916H84.107L77.7749 65.4851H76.8415C76.8628 65.4756 71.5805 80.7335 71.5687 80.7786C71.5805 80.7335 71.1696 82.0873 70.3003 82.256C69.4999 82.294 69.5593 81.876 69.5593 81.7287V78.7907C69.5593 78.0187 69.4999 76.2659 68.6995 75.4631C67.7993 74.5582 66.265 74.4916 66.3006 74.456C66.3006 74.456 70.1958 73.6508 70.1958 69.9504C70.1958 67.3567 68.3907 66.067 65.3743 65.953H56.8167V66.7867H59.0042V82.294H56.8167V83.1182H63.8376V82.294H61.6477V74.8384H64.5667C69.6329 75.2564 63.6974 83.1253 70.336 83.1182H74.521V82.2916C74.2882 82.2916 72.7538 82.3344 72.6588 81.2679C72.5971 80.4936 73.6683 77.7218 73.6683 77.7218H79.3662C79.3639 77.71 81.1381 82.294 81.1547 82.294H79.1691V83.1182H94.6883V76.7813H94.0684Z" fill="#C51F1B"/>
<path d="M48.3742 66.7819C52.792 66.7819 54.4237 66.5706 55.1933 71.9882H55.6588V65.9578H38.1184V66.7819H38.5768C39.1967 66.7819 40.6645 66.8271 40.75 68.1215V78.014L32.5439 65.9578H28.0763V66.7819H28.8173C29.6985 66.7819 30.9336 66.8223 30.9906 68.1215V80.7976C30.9906 82.0351 29.138 82.503 28.3637 82.503H28.3542V83.1182H34.4013V82.503C33.627 82.503 31.7625 82.0351 31.7625 80.7976L31.7839 69.6369C35.0331 74.2803 41.1633 83.1277 41.2203 83.1182H41.5267V68.1215C41.6098 66.8271 43.0801 66.7819 43.6976 66.7819H45.7117V82.3035H43.415V83.1182H55.8156V76.7813H55.1933C54.5757 81.5743 53.362 82.3035 49.9537 82.3035H48.3742V74.7672H49.2887C50.8183 74.8052 51.6876 75.6982 51.9987 78.3275H52.564L52.5592 70.537C52.5474 70.5513 52.0058 70.537 52.0058 70.537C52.0058 70.575 51.8942 73.8884 49.2222 73.8385H48.3742V66.7819Z" fill="#C51F1B"/>
<path d="M102.486 66.7833V65.9473H95.489V66.7833H97.686L97.6955 82.2835H95.489V83.1172H102.486V82.2835H100.289V66.7833H102.486Z" fill="#C51F1B"/>
<path d="M77.5464 51.6966C77.7554 51.1622 78.1592 50.8226 78.7174 50.7157L84.3797 49.4521L83.869 44.4026L83.8524 44.2933C83.7123 43.6306 83.2919 41.6165 80.6602 41.4004C70.5397 40.5833 68.1931 39.0822 65.7325 37.4933C65.7277 37.4861 65.7253 37.479 65.723 37.4719L65.7087 37.479L65.5496 37.3745C62.9203 35.6739 60.31 35.6597 60.0535 35.6668C57.1867 35.6692 53.5599 36.8045 53.263 36.8995C52.3889 37.156 51.5695 37.4173 50.7786 37.6714C47.6078 38.6903 44.8692 39.5739 40.2709 39.4361L39.4325 39.4124L39.2164 40.2223C39.0501 40.847 37.7628 45.9321 39.005 49.198C37.8911 50.0744 37.8934 51.0886 37.8982 51.2263C37.9433 52.3427 37.6797 52.6182 37.5942 52.7084C37.0621 53.2571 35.2998 53.3307 33.8153 53.3307H33.7963H33.2548L32.9365 53.7677C32.0221 55.0289 30.0436 55.3235 28.7776 55.0004C28.2195 53.307 28.2052 52.0125 28.742 51.2406C29.3762 50.3285 30.7205 50.2288 31.2692 50.2288H31.5874C32.9318 50.2288 34.0243 49.1291 34.0243 47.7776V38.6761C34.4352 38.0443 34.763 37.3151 35.0504 36.4957C37.2711 36.1394 38.9717 34.256 38.9717 31.9901C38.9717 31.1208 38.7152 30.28 38.2521 29.5627C40.3066 28.5746 42.0618 26.5557 42.0618 23.9075C42.0618 21.2616 40.7293 20.0479 39.4658 19.2522C39.822 18.2356 40.4111 16.4495 40.8101 14.6515L42.5867 8.28616C43.3824 5.78989 45.4583 4.17955 47.8809 4.17955H79.1805C77.8552 6.04403 75.9741 6.92521 73.3662 6.92521H54.4268L53.4363 9.04383H70.4115C69.0767 11.1648 67.1243 12.1648 64.3525 12.1648H52.0445L51.0565 14.2834H62.0367C60.7067 16.326 58.7757 17.2903 56.0538 17.2903H49.344L48.3559 19.409H55.3887C55.4528 19.4968 55.6286 19.8175 55.6286 20.6773C55.6286 22.0359 54.4838 23.145 53.0777 23.145C52.5932 23.145 52.1823 23.0334 51.4579 22.7389C51.1467 22.6059 50.8356 22.4753 50.5244 22.3446L48.8927 23.8077C49.1991 23.9383 49.5031 24.069 49.8095 24.1972V24.1996C51.2227 24.81 52.0089 25.1307 53.0777 25.1307C54.3722 25.1307 55.5407 24.5939 56.3673 23.7388C57.5738 23.8148 59.5167 23.9763 61.4002 24.1307C63.6495 24.316 65.7752 24.4894 66.8725 24.5488C67.4236 24.5773 67.939 24.6034 68.4306 24.6271C69.364 24.6723 70.2191 24.715 71.0718 24.7768C75.3447 31.7146 77.5345 32.6266 85.8072 33.617C86.4033 34.6859 86.9425 35.814 87.4531 36.9517V50.4568L87.4555 50.5352C87.5006 51.1575 87.5006 51.3665 87.4175 51.4805C87.1301 51.8557 85.8523 52.3878 85.4081 52.5707L78.4347 55.1999C77.5108 53.9482 77.1783 52.6395 77.5464 51.6966ZM76.0382 55.3662H62.2505L68.1599 49.1291C69.3522 47.8964 69.7322 46.4143 69.231 44.9583C68.9436 44.1175 68.1646 42.5096 67.3523 40.8588C69.6966 41.949 73.2522 42.9276 80.4868 43.5119C81.3585 43.5831 81.5889 43.88 81.7623 44.6733L82.0806 47.7943L78.2993 48.6398C77.031 48.8892 76.0358 49.7229 75.5679 50.9294C75.0501 52.2595 75.2259 53.8271 76.0382 55.3662ZM51.1705 55.3662C50.7881 53.8651 50.9448 52.668 51.6289 51.8843C52.282 51.1361 53.2867 50.9081 53.9969 51.0102L58.0275 51.7584L58.1296 51.775H58.6902L61.538 48.7063L61.5641 48.6778C62.051 48.1102 63.5307 46.3953 62.0201 44.2054L58.2128 37.9327C58.8445 37.8424 59.4763 37.7878 60.0606 37.7878L60.0867 37.7854C60.1057 37.7878 62.0154 37.7593 64.0604 38.9492C64.3359 39.543 64.7206 40.3244 65.1505 41.1937C65.9486 42.8136 66.9438 44.8301 67.2217 45.6448C67.3095 45.9013 67.5779 46.6779 66.6255 47.6636L59.3291 55.3662H51.1705ZM50.028 50.4924C49.2608 51.3712 48.5127 52.9056 48.9972 55.3662H36.0171C37.4113 55.2284 38.4255 54.9007 39.1237 54.1739C39.974 53.2903 40.0501 52.0814 40.0216 51.2192C40.0501 51.1432 40.1902 50.8511 40.8267 50.5637L41.9454 50.053L41.2733 49.0222C40.1641 47.3169 40.6486 43.5926 41.0785 41.569H41.1782C45.5794 41.569 48.4272 40.6546 51.4294 39.6879C52.2132 39.4361 53.0207 39.1772 53.8734 38.9279L53.8995 38.9184C53.9161 38.9136 54.7949 38.6357 55.9896 38.3578L60.2221 45.3312L60.2578 45.3882C60.6805 45.9892 60.7328 46.3882 59.9656 47.2812L57.8446 49.5709L54.3674 48.9248L54.3365 48.9201C52.7666 48.6778 51.0755 49.2953 50.028 50.4924ZM26.9987 50.0316C26.0961 51.3308 25.9868 53.1217 26.6661 55.3662H24.4715V38.2414C25.2577 38.1227 26.1032 37.897 26.8918 37.5384C26.8466 38.2842 26.7445 38.8756 26.6044 39.6642C26.5711 39.847 26.5379 40.0394 26.5046 40.2437L26.2932 41.4788H27.5497C29.4261 41.4788 30.8274 41.1842 31.9033 40.6285V47.7776C31.9033 47.9605 31.7608 48.1102 31.5874 48.1102H31.2692C29.4047 48.1102 27.849 48.8108 26.9987 50.0316ZM22.3481 53.5088L12.3535 50.9081L2.35894 53.5088V35.6312L12.3535 33.0375L22.3481 35.6312V53.5088ZM3.64152 55.3662L12.3535 53.0979L21.0655 55.3662H3.64152ZM7.12585 29.0449C7.54387 28.4084 8.49868 27.8573 9.69337 28.064L10.5983 28.2207L10.8833 27.349C10.9593 27.1163 11.0615 26.9429 11.204 26.8099C11.4581 26.57 11.8381 26.456 12.3203 26.4702C13.5981 26.5106 15.199 27.4013 16.4982 28.7955C16.9708 29.3014 17.3888 29.8881 17.7617 30.4842C17.8354 30.6077 17.9185 30.7431 17.9921 30.8619C18.0966 31.0281 18.1845 31.1635 18.2035 31.1944C18.251 31.2752 18.8923 32.2418 18.8472 32.3036C19.2866 31.6861 19.726 31.0685 20.1654 30.4534C20.1772 30.4367 20.1582 30.3797 20.1202 30.299C20.0229 30.0876 19.7901 29.7218 19.65 29.5033C19.6167 29.451 19.5835 29.3988 19.5502 29.3465C19.5478 29.3418 19.5431 29.337 19.5431 29.3323C19.5288 29.3109 19.4695 29.2183 19.3935 29.0995C19.2462 28.8691 19.0372 28.5366 18.9445 28.3561L21.7092 23.9336C22.4004 24.0785 22.987 24.0999 23.2673 24.0999H23.3362C27.2362 24.0999 31.2692 21.8506 31.2692 18.0836V17.9934C31.2217 16.9673 31.0293 15.9887 30.8749 15.2026C30.7728 14.6848 30.6777 14.1955 30.6777 13.9509C30.6777 13.54 31.2573 13.0816 32.0886 13.0816H33.3498L32.7797 9.81338C34.554 8.50705 35.6442 6.37893 35.5895 4.34581C37.5015 5.81364 38.8506 8.35505 39.0976 11.0627C39.1689 11.8465 39.0145 12.9462 38.7604 14.1029L38.6226 14.585L38.6463 14.5922C38.1951 16.478 37.5277 18.4209 37.1761 19.3401L36.8484 20.1904L37.6417 20.6393C39.0667 21.4444 39.9408 22.0335 39.9408 23.9075C39.9408 26.057 38.0051 27.7053 36.1358 28.0545L33.5802 28.5319L35.7416 29.976C36.4351 30.4367 36.8484 31.192 36.8484 31.9901C36.8484 33.3392 35.7012 34.4388 34.2903 34.4388H33.4757L33.2453 35.187C32.452 37.7712 31.5898 39.0347 28.8204 39.3031C28.9463 38.5193 29.0365 37.764 29.0365 36.6952C29.0365 36.4435 29.0152 35.7404 29.0033 35.5148L28.8798 33.1064L27.1863 34.826C26.6115 35.4103 25.5926 35.8734 24.4715 36.0943V33.9923L12.3535 30.8476L8.04265 31.9663C7.08072 31.0044 6.88596 29.4154 7.12585 29.0449ZM20.2129 21.2616C20.2438 21.1167 20.3625 21.0003 20.4884 21.0027L22.3125 21.062C24.538 20.9837 26.8039 20.0669 27.0604 17.7511C27.0604 16.1835 25.9465 14.6563 24.3741 14.6563C23.5333 14.6563 22.588 15.2358 21.5263 15.9389C20.8352 16.3996 20.2865 16.7607 19.8732 16.7607C19.593 16.7607 19.365 16.573 19.365 16.421C19.365 16.3949 19.3697 16.3688 19.3792 16.3426L20.5454 14.7822L19.5383 14.1053C19.3222 13.9651 18.9897 13.6991 18.9517 13.502C18.9327 13.4093 19.0681 13.2407 19.1108 13.1908C19.5288 12.7039 20.0086 12.1101 20.4908 11.3786C20.79 10.9629 20.961 10.7326 21.4598 10.7326C21.9539 10.7326 22.3553 11.1292 22.3553 11.6137C22.3553 11.9344 22.7092 12.1885 23.1462 12.1885C23.5832 12.1885 23.7803 11.8774 24.0511 11.6137C24.0511 11.6137 25.089 10.6589 24.5404 10.2077C23.911 9.69462 21.3933 10.7444 22.094 8.43342L22.2697 8.10328C22.5381 7.74701 23.7423 6.85633 26.2291 6.85633C26.6994 6.85633 27.1982 6.88958 27.7064 6.95134L28.0793 6.99884L33.3593 3.74252C33.4068 3.85415 33.421 3.93253 33.421 3.93253L33.4282 3.96578C33.7037 5.56425 32.6942 7.46674 31.0839 8.39067L30.4402 8.75882L30.8559 11.1411C29.4997 11.5567 28.5544 12.6445 28.5544 13.9509C28.5544 14.4022 28.6589 14.9342 28.7919 15.6087C28.9391 16.3593 29.1054 17.2072 29.1482 18.0694C29.1482 20.5466 25.728 22.1879 22.835 22.0929L22.7614 22.0905C22.6403 22.0881 20.7995 21.9408 20.3483 21.5846C20.258 21.5204 20.1891 21.3732 20.2129 21.2616ZM24.5879 4.72345C24.9228 4.2983 25.4643 3.82565 26.1127 3.39813C26.6186 3.06323 27.2789 2.76634 27.925 2.5787C28.9486 2.28418 30.1243 2.26518 31.3404 2.49794L27.5948 4.80896C27.1293 4.76146 26.6709 4.73533 26.2291 4.73533C25.5949 4.73533 25.0107 4.78758 24.4739 4.87309C24.5143 4.82321 24.5499 4.77095 24.5879 4.72345ZM81.6578 4.17955H95.7804C94.4574 6.04403 92.5739 6.92521 89.966 6.92521H79.5415C80.3728 6.19604 81.0782 5.27924 81.6578 4.17955ZM80.95 12.1648H70.5255C71.447 11.3572 72.2142 10.3122 72.827 9.04383H87.0113C85.6765 11.1648 83.7241 12.1648 80.95 12.1648ZM72.6536 17.2903H62.2291C63.1198 16.5042 63.868 15.4995 64.4713 14.2834H78.6366C77.3065 16.3236 75.3755 17.2903 72.6536 17.2903ZM75.0501 25.2447C78.3516 25.7886 81.0569 27.2754 83.0876 29.6624C83.5223 30.1731 83.9403 30.717 84.3536 31.3037C78.7981 30.5745 76.8647 29.7669 73.7581 25.0499C74.1713 25.1045 74.5989 25.1687 75.0501 25.2447ZM97.2173 48.1078C97.4216 48.4355 97.595 48.7443 97.7636 49.0412C97.9702 49.407 98.1745 49.7656 98.412 50.1361C96.8041 50.0364 95.5856 49.1457 94.4598 47.4617C95.4977 47.0983 96.7542 47.3549 97.2173 48.1078ZM84.0092 55.3662L86.1753 54.5468L86.2062 54.5349C89.282 53.2618 89.719 52.4662 89.5765 50.4212V42.1533C91.916 48.0959 94.1273 52.2738 98.6638 52.2714C99.2813 52.2714 99.9416 52.1954 100.649 52.0363L102.419 51.6349L101.2 50.2929C100.424 49.4355 100.046 48.7704 99.6115 48.0009C99.4333 47.685 99.2481 47.3572 99.0248 46.9962C97.9631 45.2742 95.4383 44.6899 93.3933 45.6068C92.4647 43.7636 91.5312 41.3624 90.4078 38.3982L90.1632 37.8329C89.9684 37.3911 89.7736 36.9446 89.5765 36.4981V36.4245H89.5432C88.8473 34.8592 88.1039 33.2893 87.2156 31.8167C86.4081 30.4795 85.5863 29.3252 84.7051 28.2896C82.3394 25.5107 79.2066 23.784 75.3969 23.1545C72.7629 22.7199 70.896 22.6273 68.5351 22.5109C68.0458 22.4895 67.5328 22.461 66.9889 22.4325C65.9201 22.3731 63.7112 22.195 61.5736 22.0169C60.1342 21.9005 58.6569 21.7793 57.4955 21.6938C57.5738 21.3661 57.619 21.0288 57.619 20.6773C57.619 20.2046 57.5762 19.7842 57.4931 19.409H72.6536C76.5607 19.409 79.3895 17.6798 81.0711 14.281C84.9568 14.2454 87.7666 12.483 89.4269 9.04383H89.966C94.0109 9.04383 96.9038 7.19835 98.5617 3.55726L99.2457 2.05854H47.8809C44.5058 2.05854 41.6319 4.26268 40.5583 7.66625L40.5251 7.78501C39.651 5.35049 38.0526 3.28412 36.0028 2.06567C33.155 0.36982 29.9153 -0.197842 27.3335 0.543205C26.4809 0.790218 25.6306 1.17499 24.9418 1.63102C24.348 2.02054 23.5191 2.64996 22.9134 3.42188C22.2579 4.26268 21.6237 5.28161 21.1582 6.23404C20.8613 6.47868 20.6333 6.7257 20.4741 6.96796L19.859 8.12228L19.8257 8.18641C19.0918 9.84901 18.1964 11.0009 17.4981 11.8133C16.8069 12.6208 16.7713 13.388 16.8639 13.8891C16.9661 14.4354 17.2606 14.8843 17.5741 15.2216L17.5551 15.2525C17.3508 15.6063 17.2439 16.0101 17.2439 16.421C17.2439 17.7748 18.422 18.8009 19.8732 18.8009C20.9278 18.8009 21.79 18.3093 22.702 17.706C23.0725 17.459 24.0535 16.8082 24.3741 16.7725C24.7803 16.7725 25.1508 17.1431 25.1508 17.5492C25.1508 18.6584 23.7186 19.2569 22.6925 19.3306L20.6071 19.5538C19.1061 19.6963 18.3935 20.492 18.3935 21.2022C18.3935 21.9171 18.7355 22.3185 18.9754 22.5584L19.1298 22.7151L19.6595 23.1878L17.4458 26.7505C15.8687 25.2898 14.0233 24.4039 12.3868 24.354C11.3298 24.3184 10.4154 24.6366 9.74325 25.2732C9.54849 25.4584 9.37748 25.6698 9.23022 25.9002H9.19222C7.44412 25.9002 6.03803 26.836 5.34924 27.8882C4.60107 29.0378 4.86947 31.0258 5.81952 32.5435L0.235565 33.9923V60.6865H102.654V55.3662H84.0092Z" fill="#C51F1B"/>
<path d="M20.1347 38.3765L13.4558 36.6427V38.8302L20.1347 40.5664V38.3765Z" fill="#C51F1B"/>
<path d="M4.57336 40.5664L11.2523 38.8326V36.6427L4.57336 38.3765V40.5664Z" fill="#C51F1B"/>
<path d="M4.57336 44.9648L11.2523 43.2334V41.0411L4.57336 42.775V44.9648Z" fill="#C51F1B"/>
<path d="M20.1347 42.775L13.4558 41.0435V43.2334L20.1347 44.9648V42.775Z" fill="#C51F1B"/>
<path d="M20.1347 47.1777L13.4558 45.4415V47.6314L20.1347 49.3652V47.1777Z" fill="#C51F1B"/>
<path d="M4.57336 49.3662L11.2523 47.6324V45.4425L4.57336 47.1787V49.3662Z" fill="#C51F1B"/>
</svg>
