<svg width="166" height="64" viewBox="0 0 166 64" fill="none" xmlns="http://www.w3.org/2000/svg">
<path d="M39.5759 0.374024C36.9775 0.373994 34.4022 0.886335 31.9839 1.88445C29.5649 0.886004 26.9889 0.373656 24.3899 0.374024C11.9089 0.374024 0.637853 12.9165 0.637853 30.1248C0.597329 34.4758 1.3782 38.792 2.93534 42.824C4.49248 46.8561 6.795 50.524 9.70981 53.6157C12.6246 56.7075 16.0939 59.1617 19.9172 60.8367C23.7405 62.5116 27.8419 63.374 31.9843 63.374C36.1268 63.374 40.2282 62.5116 44.0515 60.8367C47.8748 59.1617 51.3441 56.7075 54.2589 53.6157C57.1737 50.524 59.4762 46.8561 61.0334 42.824C62.5905 38.792 63.3714 34.4758 63.3308 30.1248C63.3308 12.9165 52.0589 0.374024 39.5759 0.374024ZM31.9839 10.591C33.6574 11.8255 35.0335 13.4533 36.0026 15.3448C36.9716 17.2364 37.5069 19.3394 37.5659 21.4865C37.5659 25.1324 35.3029 27.9988 31.9839 27.9988C28.6649 27.9988 26.4009 25.1303 26.4009 21.4865C26.4601 19.3394 26.9957 17.2364 27.9649 15.3449C28.9341 13.4534 30.3103 11.8255 31.9839 10.591ZM31.9839 55.2014C28.851 55.1843 25.7523 54.5168 22.8659 53.2373C19.9796 51.9577 17.3626 50.0914 15.1654 47.7456C12.9682 45.3999 11.2342 42.621 10.0632 39.5689C8.89214 36.5167 8.30715 33.2514 8.34186 29.9609C8.34186 17.013 17.1358 8.16885 24.0418 8.49762C20.7164 12.0912 18.8338 16.8903 18.7838 21.9014C18.7378 23.752 19.0451 25.5936 19.6876 27.3174C20.33 29.0413 21.2946 30.6126 22.5245 31.9386C23.7543 33.2646 25.2246 34.3185 26.8484 35.038C28.4723 35.7576 30.2169 36.1284 31.9793 36.1284C33.7418 36.1284 35.4864 35.7576 37.1103 35.038C38.7342 34.3185 40.2044 33.2646 41.4342 31.9386C42.6641 30.6126 43.6287 29.0413 44.2712 27.3174C44.9136 25.5936 45.2209 23.752 45.1749 21.9014C45.1239 16.8907 43.2419 12.0921 39.9179 8.49762C46.8279 8.16885 55.6179 17.014 55.6179 29.9609C55.6526 33.2514 55.0676 36.5165 53.8966 39.5686C52.7257 42.6207 50.9918 45.3995 48.7947 47.7453C46.5976 50.091 43.9807 51.9573 41.0945 53.2369C38.2082 54.5165 35.1096 55.1842 31.9769 55.2014" fill="#0072BC"/>
<path d="M92.4 14.3672V20.9509H95.863V33.068L86.563 14.3714H75.839V20.9551H79.297V41.1129H75.839V47.6924H90.027V41.1129H86.566V29.0021L95.866 47.6924H103.127V20.9509H106.591V14.3672H92.4Z" fill="black"/>
<path d="M136.052 27.1618V14.3672H108.769V27.1618H114.963V20.9478H118.303V41.1055H113.775V47.685H131.047V41.1055H126.523V20.9509H129.863V27.1618H136.052Z" fill="black"/>
<path d="M165.435 27.1618V14.3672H138.153V27.1618H144.347V20.9478H147.681V41.1055H143.159V47.685H160.441V41.1055H155.912V20.9509H159.247V27.1618H165.435Z" fill="black"/>
</svg>
