<svg width="82" height="84" viewBox="0 0 82 84" fill="none" xmlns="http://www.w3.org/2000/svg">
<path fill-rule="evenodd" clip-rule="evenodd" d="M74.016 37.7268C76.1053 20.7413 63.5628 3.05705 44.7525 0.581118C25.2436 -1.54208 10.6119 12.9608 8.52259 30.299C6.08058 49.7605 20.7123 65.3216 37.4401 67.4447C56.2504 69.5679 71.228 56.4828 74.016 37.7268Z" fill="#2AACE2"/>
<path fill-rule="evenodd" clip-rule="evenodd" d="M71.7029 37.4147C73.7922 19.0183 60.2051 4.50864 44.8815 2.74496C26.7631 0.621771 12.1314 14.4191 10.7408 30.3397C8.9975 49.0889 21.8859 63.5985 37.915 65.3622C56.0266 67.1394 69.9596 52.9826 71.7029 37.4147Z" fill="white"/>
<path fill-rule="evenodd" clip-rule="evenodd" d="M58.0073 10.0712C52.7841 6.17759 43.7216 3.70167 36.755 5.11939C31.1791 6.17759 28.0452 7.59532 24.2126 10.424C15.8419 17.2277 11.9415 25.9579 12.7148 36.9605C13.7594 51.8229 28.3911 66.3257 46.1568 62.7848C56.9559 61.0143 64.2752 53.9393 67.755 45.0938C70.8889 37.666 70.543 27.7555 66.7104 20.3277C64.9399 16.122 61.2769 13.0695 58.0073 10.0712Z" fill="#00AEEF"/>
<path fill-rule="evenodd" clip-rule="evenodd" d="M16.5127 47.4683C19.6466 48.5333 23.1333 51.7147 30.0998 51.0092C34.6311 50.6565 38.4637 46.7628 40.5529 44.6396C40.8989 48.5333 34.977 54.1906 30.0998 55.2556C23.8319 55.9611 17.5573 51.362 16.5127 47.4683Z" fill="white"/>
<path fill-rule="evenodd" clip-rule="evenodd" d="M23.1335 19.1681C16.6418 16.9703 14.0302 25.3138 14.4236 30.4895C15.1223 40.3932 24.5241 46.4101 33.2339 42.5164C38.8098 40.0405 41.2451 36.4996 41.2451 28.719C40.8991 21.2913 41.2451 13.504 40.8991 6.07617H36.3678C36.0219 11.3808 36.3678 17.3976 36.3678 22.3495C36.3678 27.3013 37.4125 33.6709 34.6245 36.4996C28.7026 42.5164 15.4615 39.3282 16.1602 28.719C18.2495 30.1368 19.9928 32.26 23.4727 30.8422C29.4013 28.719 29.0554 20.579 23.1335 19.1681Z" fill="white"/>
<path fill-rule="evenodd" clip-rule="evenodd" d="M13.725 37.2051C13.725 43.5747 20.3456 49.232 26.2675 49.5847C33.234 50.2902 39.8546 44.9856 40.5532 38.9688C38.8099 39.6742 38.8099 41.4447 34.6314 43.5679C32.1894 44.9856 29.7541 45.3383 26.2675 45.3383C17.2117 44.9924 15.8143 38.6228 13.725 37.2051Z" fill="white"/>
<path fill-rule="evenodd" clip-rule="evenodd" d="M45.7765 61.9707C46.1225 56.6661 45.7765 51.002 45.7765 45.6974C45.7765 40.3928 45.0778 34.7287 48.2118 31.9001C53.7877 25.8832 67.3748 29.4241 66.3301 40.0401C62.1516 35.441 57.9662 36.8587 55.877 40.0401C50.301 48.1801 65.2855 55.9606 68.0667 41.8105C68.7654 36.506 67.022 31.9068 64.58 29.0714C58.6581 22.3491 47.1603 23.7668 42.9818 31.1946C40.8925 35.0882 41.5912 41.0983 41.5912 46.0569C41.5912 51.3615 41.2452 56.6729 41.5912 61.9775H45.7765V61.9707Z" fill="white"/>
<path fill-rule="evenodd" clip-rule="evenodd" d="M42.2896 29.0716C42.6355 23.0547 49.6088 18.1029 56.5753 18.8083C62.8431 19.5138 68.7718 24.8252 68.7718 31.188C66.3366 30.1298 64.9392 23.4075 56.5753 23.048C47.1668 22.3493 45.0775 26.9484 42.2896 29.0716Z" fill="white"/>
<path fill-rule="evenodd" clip-rule="evenodd" d="M56.5756 13.5042C60.6117 14.0197 64.892 17.3978 66.3301 21.2847C64.5868 20.5792 63.1962 19.1615 60.4082 18.456C58.319 17.3978 55.531 17.0383 52.743 17.3978C46.4752 17.7505 44.7319 22.3497 41.9439 23.7674C43.3752 17.2147 49.8397 11.7947 56.5756 13.5042Z" fill="white"/>
<path d="M3.61047 74.958V79.6362L3.6051 80.1566C3.6051 80.6644 3.54966 81.0883 3.43879 81.4245C3.32791 81.7607 3.1312 82.0951 2.85223 82.4259C2.31932 83.0572 1.86688 83.3737 1.49313 83.3737C1.41087 83.3737 1.33576 83.363 1.27138 83.3397L0.95485 83.236L0.677664 83.1609C0.602556 83.118 0.565002 83.0375 0.565002 82.9177C0.565002 82.8479 0.573943 82.7675 0.593614 82.6745L0.729525 81.9413C0.749196 81.8286 0.78675 81.7732 0.843976 81.7732C0.947697 81.7732 1.07645 81.8608 1.23382 82.0343L1.452 82.2846C1.62009 82.4742 1.76495 82.5708 1.88476 82.5708C2.17625 82.5708 2.32111 82.2024 2.32111 81.4674L2.31038 81.04V76.6873C2.31038 75.7931 2.29965 75.1994 2.27998 74.9044C2.25852 74.6093 2.21202 74.3893 2.14049 74.2427C2.07253 74.1086 1.97418 74.0138 1.84363 73.9601C1.71309 73.9065 1.48061 73.8636 1.14441 73.8332C1.03175 73.8207 0.974522 73.7652 0.974522 73.6633C0.974522 73.5309 1.06215 73.463 1.23561 73.463C1.32324 73.463 1.45021 73.4701 1.6201 73.4862C2.15301 73.5363 2.45344 73.5613 2.52139 73.5613C2.65373 73.5613 2.85223 73.5435 3.11689 73.5095C3.66054 73.4433 3.97885 73.4111 4.06827 73.4111C4.23816 73.4111 4.32399 73.4648 4.32399 73.5703C4.32399 73.6365 4.26677 73.6883 4.15411 73.7241C3.94666 73.7903 3.80539 73.9101 3.72849 74.0853C3.64802 74.2588 3.61047 74.5503 3.61047 74.958Z" fill="black"/>
<path d="M8.95905 74.1267L11.5378 80.1604C11.6665 80.4644 11.8167 80.6915 11.992 80.8417C12.1655 80.9919 12.3908 81.0921 12.6662 81.1422C12.7341 81.1547 12.7681 81.2083 12.7681 81.3067C12.7681 81.4122 12.7252 81.4641 12.6376 81.4605C12.5875 81.4569 12.516 81.4444 12.4212 81.4265C12.1297 81.3603 11.6612 81.3281 11.0138 81.3281C10.3629 81.3281 9.91936 81.3585 9.68509 81.4193C9.62787 81.4354 9.57959 81.4444 9.53667 81.4444C9.43116 81.4444 9.37751 81.3889 9.37751 81.2799C9.37751 81.2244 9.41864 81.1833 9.50269 81.1565C9.68331 81.1028 9.83352 81.0063 9.95334 80.8686C10.0732 80.7291 10.1322 80.5842 10.1322 80.4286C10.1322 80.2123 9.96764 79.7384 9.64039 79.0069C9.53845 78.7834 9.42579 78.6546 9.30419 78.6225C9.18259 78.5903 8.74803 78.5742 8.00231 78.5742H7.23335L6.72547 78.6672C6.58599 78.7333 6.42861 78.9855 6.25157 79.429L6.07632 79.8725C6.02267 79.9994 5.99764 80.1282 5.99764 80.2587C5.99764 80.7434 6.33026 81.0241 6.9955 81.101C7.13857 81.1207 7.20831 81.1779 7.20473 81.2709C7.19758 81.3729 7.12962 81.4247 7.00087 81.4247C6.93291 81.4247 6.83635 81.414 6.71117 81.3907C6.4608 81.3407 6.23727 81.3156 6.04056 81.3156C5.86351 81.3156 5.5756 81.3353 5.17681 81.3729C4.88174 81.4033 4.69755 81.4193 4.62602 81.4193C4.52051 81.4193 4.46686 81.3729 4.46686 81.2781C4.46686 81.1994 4.52051 81.1404 4.62602 81.101C4.82988 81.0349 4.99262 80.9151 5.11601 80.7398C5.2394 80.5645 5.42181 80.1962 5.66323 79.6346L7.2101 75.999C7.33528 75.7111 7.42112 75.5126 7.47119 75.4053L7.99873 74.3037L8.27056 73.7619V73.7798C8.39216 73.4865 8.47263 73.3398 8.51376 73.3398C8.57457 73.3398 8.67829 73.5008 8.82493 73.8245L8.95905 74.1267ZM9.17185 77.7408L8.4315 75.9776C8.25446 75.5555 8.12749 75.3427 8.05238 75.3427C8.00768 75.3427 7.92363 75.4786 7.80381 75.7522L7.69651 75.9937L7.03485 77.5316L6.97225 77.6765C6.94543 77.7337 6.93291 77.7838 6.93291 77.8267C6.93291 77.9572 7.06882 78.0234 7.34064 78.0234H9.0127C9.15576 78.0234 9.22729 77.9823 9.22729 77.9018C9.22729 77.8821 9.21835 77.8499 9.19868 77.8034L9.17185 77.7408Z" fill="black"/>
<path d="M15.1859 73.3359C15.54 73.3359 15.8887 73.4057 16.2285 73.5434L16.6076 73.7043C16.7775 73.7741 16.8991 73.808 16.9706 73.808C17.0243 73.808 17.0779 73.7937 17.1351 73.7669L17.3515 73.6578C17.3819 73.6417 17.4123 73.6346 17.4427 73.6346C17.5214 73.6346 17.5625 73.699 17.5625 73.8259L17.5518 74.2945C17.5518 74.3678 17.5554 74.4375 17.5625 74.5019L17.6359 75.0688L17.6931 75.5946C17.7002 75.641 17.7038 75.6786 17.7038 75.7108C17.7038 75.8771 17.6573 75.9594 17.5625 75.9594C17.4946 75.9594 17.4463 75.886 17.4159 75.7394C17.3068 75.2011 17.0296 74.7362 16.5879 74.3445C16.1444 73.9529 15.6759 73.7562 15.1805 73.7562C14.8408 73.7562 14.5421 73.8724 14.29 74.1067C14.036 74.341 13.9091 74.6164 13.9091 74.9347C13.9091 75.2297 14.0199 75.4855 14.2435 75.7001C14.3865 75.8395 14.8354 76.0631 15.5883 76.376C16.4842 76.7498 17.0779 77.1164 17.3694 77.474C17.7128 77.905 17.8862 78.4254 17.8862 79.0352C17.8862 79.7058 17.6484 80.2906 17.1727 80.7878C16.697 81.2849 16.1391 81.5335 15.5006 81.5335C15.2396 81.5335 14.8265 81.4423 14.2596 81.2616C13.9949 81.1722 13.8 81.115 13.6766 81.0882C13.5031 81.0542 13.4012 81.0202 13.3726 80.988C13.344 80.9559 13.3207 80.8557 13.301 80.6912C13.2814 80.5106 13.2259 80.2477 13.1312 79.9061C12.9881 79.3822 12.9166 79.0477 12.9166 78.9011C12.9166 78.7169 12.9756 78.6239 13.0918 78.6239C13.1455 78.6239 13.183 78.6704 13.2045 78.7616C13.3905 79.4233 13.7124 79.9777 14.1702 80.4283C14.628 80.8772 15.1019 81.1025 15.5936 81.1025C15.9763 81.1025 16.3179 80.9541 16.6183 80.6554C16.9188 80.3586 17.069 80.017 17.069 79.6325C17.069 79.3285 16.9903 79.0799 16.8329 78.8832C16.6756 78.6865 16.4055 78.5023 16.0193 78.3306L15.1573 77.9372C14.3436 77.567 13.791 77.2165 13.4995 76.8875C13.2081 76.5584 13.0632 76.1203 13.0632 75.5713C13.0632 74.9347 13.2653 74.4035 13.673 73.9761C14.0807 73.5487 14.5815 73.3359 15.1859 73.3359Z" fill="black"/>
<path d="M22.4395 74.1267L25.0182 80.1604C25.147 80.4644 25.2972 80.6915 25.4725 80.8417C25.6459 80.9919 25.8712 81.0921 26.1466 81.1422C26.2146 81.1547 26.2486 81.2083 26.2486 81.3067C26.2486 81.4122 26.2057 81.4641 26.118 81.4605C26.068 81.4569 25.9964 81.4444 25.9016 81.4265C25.6102 81.3603 25.1416 81.3281 24.4943 81.3281C23.8433 81.3281 23.3998 81.3585 23.1656 81.4193C23.1083 81.4354 23.0601 81.4444 23.0171 81.4444C22.9116 81.4444 22.858 81.3889 22.858 81.2799C22.858 81.2244 22.8991 81.1833 22.9832 81.1565C23.1638 81.1028 23.314 81.0063 23.4338 80.8686C23.5536 80.7291 23.6126 80.5842 23.6126 80.4286C23.6126 80.2123 23.4481 79.7384 23.1209 79.0069C23.0189 78.7834 22.9063 78.6546 22.7847 78.6225C22.6631 78.5903 22.2285 78.5742 21.4828 78.5742H20.7138L20.2059 78.6672C20.0665 78.7333 19.9091 78.9855 19.732 79.429L19.5568 79.8725C19.5031 79.9994 19.4781 80.1282 19.4781 80.2587C19.4781 80.7434 19.8107 81.0241 20.476 81.101C20.619 81.1207 20.6888 81.1779 20.6852 81.2709C20.678 81.3729 20.6101 81.4247 20.4813 81.4247C20.4134 81.4247 20.3168 81.414 20.1916 81.3907C19.9413 81.3407 19.7177 81.3156 19.521 81.3156C19.3422 81.3156 19.0561 81.3353 18.6573 81.3729C18.3622 81.4033 18.178 81.4193 18.1065 81.4193C18.001 81.4193 17.9473 81.3729 17.9473 81.2781C17.9473 81.1994 18.001 81.1404 18.1065 81.101C18.3103 81.0349 18.4731 80.9151 18.5965 80.7398C18.7199 80.5645 18.9023 80.1962 19.1437 79.6346L20.6906 75.999C20.8157 75.7111 20.9016 75.5126 20.9517 75.4053L21.4792 74.3037L21.751 73.7619V73.7798C21.8726 73.4865 21.9531 73.3398 21.9942 73.3398C22.055 73.3398 22.1588 73.5008 22.3054 73.8245L22.4395 74.1267ZM22.6505 77.7408L21.9102 75.9776C21.7331 75.5555 21.6062 75.3427 21.5311 75.3427C21.4864 75.3427 21.4023 75.4786 21.2825 75.7522L21.1752 75.9937L20.5135 77.5316L20.4509 77.6765C20.4241 77.7337 20.4116 77.7838 20.4116 77.8267C20.4116 77.9572 20.5475 78.0234 20.8193 78.0234H22.4914C22.6344 78.0234 22.706 77.9823 22.706 77.9018C22.706 77.8821 22.697 77.8499 22.6774 77.8034L22.6505 77.7408Z" fill="black"/>
<path d="M31.6744 79.1278C31.6744 79.8592 31.7406 80.3546 31.8729 80.6139C32.0053 80.8732 32.2664 81.0216 32.6544 81.061C32.8136 81.0771 32.8923 81.1396 32.8923 81.2487C32.8923 81.3578 32.8279 81.4133 32.6991 81.4133C32.658 81.4133 32.5793 81.4079 32.4667 81.3954C32.1412 81.3686 31.8282 81.3542 31.526 81.3542C31.2721 81.3542 31.0485 81.3614 30.8518 81.3757L30.3779 81.4222L29.9988 81.4562C29.8933 81.4669 29.82 81.4723 29.7789 81.4723C29.6429 81.4723 29.575 81.4186 29.575 81.3131C29.575 81.2273 29.6125 81.1718 29.6877 81.1486C29.9452 81.0681 30.1222 80.959 30.2206 80.8231C30.3189 80.6872 30.3672 80.478 30.3672 80.1972V79.65L30.3726 79.4247V75.2508C30.3726 74.7894 30.3153 74.48 30.2027 74.3227C30.0167 74.0652 29.7145 73.9096 29.296 73.8559C29.1404 73.8327 29.0635 73.7665 29.0635 73.6556C29.0635 73.5466 29.1172 73.4911 29.2227 73.4911C29.2638 73.4911 29.3318 73.4965 29.4266 73.509C29.7181 73.5394 30.0364 73.5555 30.3833 73.5555C30.7642 73.5555 31.2274 73.534 31.771 73.4911C32.4094 73.4411 32.8494 73.416 33.0908 73.416C33.8079 73.416 34.4034 73.6163 34.8755 74.0151C35.3476 74.4139 35.5836 74.9164 35.5836 75.5208C35.5836 75.9017 35.4781 76.2505 35.2689 76.5616C35.0597 76.8746 34.7718 77.1106 34.4052 77.2734C34.3301 77.3038 34.2943 77.3431 34.2979 77.3896C34.3014 77.4272 34.3211 77.4737 34.3551 77.5291C34.3891 77.5827 34.4409 77.6739 34.5089 77.8009L35.0132 78.7129L35.5962 79.7698C35.7965 80.1275 35.9753 80.376 36.1309 80.5137C36.2882 80.6532 36.4724 80.7212 36.6835 80.7212C36.7711 80.7212 36.8516 80.714 36.9267 80.6979C36.9714 80.6872 37.0143 80.6801 37.0518 80.6801C37.1198 80.6801 37.1538 80.7248 37.1538 80.8124C37.1538 80.9233 37 81.052 36.6906 81.1933C36.3812 81.3364 36.1076 81.4079 35.868 81.4079C35.4799 81.4079 35.1223 81.213 34.7932 80.8249C34.466 80.4351 34.0386 79.7001 33.5146 78.6182C33.3107 78.1908 33.1426 77.9207 33.0103 77.8063C32.878 77.6936 32.6634 77.6364 32.3647 77.6364H32.0142L31.7585 77.6829C31.7013 77.7133 31.6727 77.8063 31.6727 77.9601V79.1278H31.6744ZM31.6744 74.6177V76.6171C31.6744 76.8638 31.7048 77.0194 31.7674 77.0856C31.83 77.1518 31.9785 77.1839 32.2127 77.1839C32.8869 77.1839 33.3036 77.1714 33.4645 77.1464C33.6255 77.1214 33.7757 77.0427 33.9152 76.9121C34.1906 76.6582 34.3301 76.3077 34.3301 75.8606C34.3301 75.2794 34.1441 74.7984 33.7703 74.4192C33.3966 74.0401 32.9227 73.8506 32.3486 73.8506C32.0911 73.8506 31.9141 73.906 31.8175 74.0151C31.7227 74.1242 31.6744 74.3245 31.6744 74.6177Z" fill="black"/>
<path d="M41.3419 74.1267L43.9206 80.1604C44.0493 80.4644 44.1995 80.6915 44.3748 80.8417C44.5483 80.9919 44.7736 81.0921 45.049 81.1422C45.1169 81.1547 45.1509 81.2083 45.1509 81.3067C45.1509 81.4122 45.108 81.4641 45.0204 81.4605C44.9703 81.4569 44.8988 81.4444 44.804 81.4265C44.5125 81.3603 44.044 81.3281 43.3966 81.3281C42.7457 81.3281 42.3022 81.3585 42.0679 81.4193C42.0107 81.4354 41.9624 81.4444 41.9195 81.4444C41.814 81.4444 41.7603 81.3889 41.7603 81.2799C41.7603 81.2244 41.8015 81.1833 41.8855 81.1565C42.0661 81.1028 42.2163 81.0063 42.3361 80.8686C42.456 80.7291 42.515 80.5842 42.515 80.4286C42.515 80.2123 42.3505 79.7384 42.0232 79.0069C41.9213 78.7834 41.8086 78.6546 41.687 78.6225C41.5654 78.5903 41.1308 78.5742 40.3851 78.5742H39.6162L39.1083 78.6672C38.9688 78.7333 38.8114 78.9855 38.6344 79.429L38.4591 79.8725C38.4055 79.9994 38.3804 80.1282 38.3804 80.2587C38.3804 80.7434 38.7131 81.0241 39.3783 81.101C39.5214 81.1207 39.5911 81.1779 39.5875 81.2709C39.5804 81.3729 39.5124 81.4247 39.3837 81.4247C39.3157 81.4247 39.2192 81.414 39.094 81.3907C38.8436 81.3407 38.6201 81.3156 38.4234 81.3156C38.2445 81.3156 37.9584 81.3353 37.5596 81.3729C37.2646 81.4033 37.0804 81.4193 37.0088 81.4193C36.9033 81.4193 36.8497 81.3729 36.8497 81.2781C36.8497 81.1994 36.9033 81.1404 37.0088 81.101C37.2127 81.0349 37.3754 80.9151 37.4988 80.7398C37.6222 80.5645 37.8046 80.1962 38.046 79.6346L39.5929 75.999C39.7181 75.7111 39.8039 75.5126 39.854 75.4053L40.3815 74.3037L40.6534 73.7619V73.7798C40.775 73.4865 40.8554 73.3398 40.8966 73.3398C40.9574 73.3398 41.0611 73.5008 41.2077 73.8245L41.3419 74.1267ZM41.5547 77.7408L40.8143 75.9776C40.6373 75.5555 40.5103 75.3427 40.4352 75.3427C40.3905 75.3427 40.3064 75.4786 40.1866 75.7522L40.0793 75.9937L39.4177 77.5316L39.3551 77.6765C39.3282 77.7337 39.3157 77.7838 39.3157 77.8267C39.3157 77.9572 39.4516 78.0234 39.7235 78.0234H41.3955C41.5386 78.0234 41.6101 77.9823 41.6101 77.9018C41.6101 77.8821 41.6012 77.8499 41.5815 77.8034L41.5547 77.7408Z" fill="black"/>
<path d="M50.9519 77.4434H48.2659C47.9977 77.4434 47.8332 77.4792 47.7706 77.5507C47.708 77.6222 47.6776 77.81 47.6776 78.114V79.55C47.6776 80.0972 47.7652 80.4889 47.9387 80.7303C48.1121 80.9699 48.3983 81.0915 48.7935 81.0915C48.9222 81.0915 48.9866 81.1434 48.9866 81.2453C48.9866 81.3669 48.8883 81.4277 48.6915 81.4277C48.6236 81.4277 48.4895 81.417 48.2892 81.3938C47.8439 81.3401 47.4326 81.3133 47.0588 81.3133C46.8246 81.3133 46.5134 81.3347 46.1236 81.3759C45.8929 81.4027 45.748 81.417 45.6872 81.417C45.5656 81.417 45.5066 81.3526 45.5066 81.2239C45.5066 81.1416 45.5531 81.0951 45.6479 81.0826C45.9054 81.0397 46.0896 80.9216 46.2005 80.7249C46.3113 80.5282 46.3668 80.2296 46.3668 79.829L46.3721 79.5178V74.6984C46.3721 74.4176 46.297 74.2102 46.1486 74.0778C46.0002 73.9455 45.723 73.8382 45.3188 73.7577C45.2133 73.7345 45.1597 73.6773 45.1597 73.5879C45.1597 73.4752 45.2205 73.418 45.3403 73.418C45.4082 73.418 45.5334 73.4323 45.714 73.4609C46.0198 73.5092 46.3793 73.5342 46.7906 73.5342C46.9301 73.5342 47.2287 73.5092 47.6865 73.4591C47.9583 73.4323 48.164 73.418 48.3035 73.418C48.4394 73.418 48.5074 73.4716 48.5074 73.5771C48.5074 73.663 48.4519 73.7166 48.3428 73.7363C47.8975 73.8132 47.674 74.0993 47.674 74.5965V76.0789C47.674 76.4706 47.7008 76.7013 47.7563 76.7674C47.8117 76.8354 47.9941 76.8676 48.3035 76.8676H50.9502C51.1808 76.8676 51.3203 76.8211 51.3722 76.7263C51.4241 76.6315 51.4491 76.3704 51.4491 75.943V74.7002C51.4491 74.2066 51.1826 73.9097 50.6497 73.8096L50.3886 73.7577C50.2831 73.7381 50.2295 73.6808 50.2295 73.5879C50.2295 73.4752 50.2903 73.418 50.4101 73.418C50.478 73.418 50.6032 73.4323 50.7838 73.4609C51.0932 73.5092 51.4545 73.5342 51.8658 73.5342C52.0088 73.5342 52.3075 73.5092 52.7617 73.4591C53.0335 73.4323 53.2392 73.418 53.3787 73.418C53.5146 73.418 53.5825 73.4716 53.5825 73.5771C53.5825 73.663 53.5271 73.7166 53.418 73.7363C52.9727 73.8132 52.7492 74.0993 52.7492 74.5965V79.5518C52.7492 80.099 52.835 80.4907 53.0067 80.7321C53.1784 80.9717 53.4591 81.0933 53.849 81.0933C53.9885 81.0933 54.0582 81.1452 54.0582 81.2471C54.0582 81.3687 53.9599 81.4295 53.7631 81.4295C53.6952 81.4295 53.5629 81.4188 53.3661 81.3955C52.9173 81.3419 52.5078 81.3151 52.1376 81.3151C51.8997 81.3151 51.5868 81.3365 51.1969 81.3777C50.9663 81.4045 50.8214 81.4188 50.7606 81.4188C50.639 81.4188 50.58 81.3544 50.58 81.2257C50.58 81.1434 50.6265 81.0969 50.7213 81.0844C50.9788 81.0415 51.163 80.9234 51.2738 80.7267C51.3847 80.53 51.4401 80.2332 51.4401 79.8326L51.4455 79.5214V78.2517C51.4455 77.8744 51.4205 77.6473 51.3722 77.5686C51.3275 77.4828 51.1862 77.4434 50.9519 77.4434Z" fill="black"/>
<path d="M58.4932 74.1267L61.0719 80.1604C61.2006 80.4644 61.3509 80.6915 61.5261 80.8417C61.6996 80.9919 61.9249 81.0921 62.2003 81.1422C62.2683 81.1547 62.3022 81.2083 62.3022 81.3067C62.3022 81.4122 62.2593 81.4641 62.1717 81.4605C62.1216 81.4569 62.0501 81.4444 61.9553 81.4265C61.6638 81.3603 61.1953 81.3281 60.5479 81.3281C59.897 81.3281 59.4535 81.3585 59.2192 81.4193C59.162 81.4354 59.1137 81.4444 59.0708 81.4444C58.9653 81.4444 58.9116 81.3889 58.9116 81.2799C58.9116 81.2244 58.9528 81.1833 59.0368 81.1565C59.2174 81.1028 59.3676 81.0063 59.4875 80.8686C59.6073 80.7291 59.6663 80.5842 59.6663 80.4286C59.6663 80.2123 59.5018 79.7384 59.1745 79.0069C59.0726 78.7834 58.9599 78.6546 58.8383 78.6225C58.7167 78.5903 58.2821 78.5742 57.5364 78.5742H56.7675L56.2596 78.6672C56.1201 78.7333 55.9627 78.9855 55.7857 79.429L55.6104 79.8725C55.5568 79.9994 55.5318 80.1282 55.5318 80.2587C55.5318 80.7434 55.8644 81.0241 56.5296 81.101C56.6727 81.1207 56.7424 81.1779 56.7389 81.2709C56.7317 81.3729 56.6637 81.4247 56.535 81.4247C56.467 81.4247 56.3705 81.414 56.2453 81.3907C55.9949 81.3407 55.7714 81.3156 55.5747 81.3156C55.3958 81.3156 55.1097 81.3353 54.7109 81.3729C54.4159 81.4033 54.2317 81.4193 54.1601 81.4193C54.0546 81.4193 54.001 81.3729 54.001 81.2781C54.001 81.1994 54.0546 81.1404 54.1601 81.101C54.364 81.0349 54.5267 80.9151 54.6501 80.7398C54.7735 80.5645 54.9559 80.1962 55.1973 79.6346L56.7442 75.999C56.8694 75.7111 56.9552 75.5126 57.0053 75.4053L57.5329 74.3037L57.8047 73.7619V73.7798C57.9263 73.4865 58.0068 73.3398 58.0479 73.3398C58.1087 73.3398 58.2124 73.5008 58.359 73.8245L58.4932 74.1267ZM58.706 77.7408L57.9656 75.9776C57.7886 75.5555 57.6616 75.3427 57.5865 75.3427C57.5418 75.3427 57.4577 75.4786 57.3379 75.7522L57.2306 75.9937L56.569 77.5316L56.5064 77.6765C56.4795 77.7337 56.467 77.7838 56.467 77.8267C56.467 77.9572 56.6029 78.0234 56.8748 78.0234H58.5468C58.6899 78.0234 58.7614 77.9823 58.7614 77.9018C58.7614 77.8821 58.7525 77.8499 58.7328 77.8034L58.706 77.7408Z" fill="black"/>
<path d="M64.8271 79.1278C64.8271 79.8592 64.8933 80.3546 65.0256 80.6139C65.1579 80.8732 65.419 81.0216 65.8071 81.061C65.9663 81.0771 66.0449 81.1397 66.0449 81.2487C66.0449 81.3578 65.9806 81.4133 65.8518 81.4133C65.8107 81.4133 65.732 81.4079 65.6193 81.3954C65.2939 81.3686 64.9809 81.3542 64.6787 81.3542C64.4247 81.3542 64.2012 81.3614 64.0045 81.3757L63.5288 81.4204L63.1497 81.4544C63.0442 81.4651 62.9709 81.4705 62.9297 81.4705C62.7938 81.4705 62.7259 81.4168 62.7259 81.3113C62.7259 81.2255 62.7634 81.1701 62.8385 81.1468C63.096 81.0663 63.2731 80.9572 63.3714 80.8213C63.4698 80.6854 63.5181 80.4762 63.5181 80.1954V79.6482L63.5234 79.4229V75.2508C63.5234 74.7894 63.4662 74.48 63.3536 74.3227C63.1676 74.0652 62.8654 73.9096 62.4469 73.8559C62.2913 73.8327 62.2144 73.7665 62.2144 73.6556C62.2144 73.5466 62.2681 73.4911 62.3736 73.4911C62.4147 73.4911 62.4827 73.4965 62.5774 73.509C62.8689 73.5394 63.1872 73.5555 63.5342 73.5555C63.9151 73.5555 64.3783 73.534 64.9219 73.4911C65.5603 73.4411 66.0002 73.416 66.2416 73.416C66.9588 73.416 67.5543 73.6163 68.0264 74.0151C68.4985 74.4139 68.7345 74.9164 68.7345 75.5208C68.7345 75.9017 68.629 76.2505 68.4198 76.5616C68.2106 76.8746 67.9226 77.1106 67.556 77.2734C67.4809 77.3038 67.4452 77.3431 67.4487 77.3896C67.4523 77.4272 67.472 77.4737 67.506 77.5291C67.54 77.5827 67.5918 77.6739 67.6598 77.8009L68.1641 78.7129L68.747 79.7698C68.9473 80.1275 69.1262 80.376 69.2817 80.5137C69.4391 80.6532 69.6233 80.7212 69.8343 80.7212C69.922 80.7212 70.0024 80.714 70.0775 80.6979C70.1222 80.6872 70.1652 80.6801 70.2027 80.6801C70.2707 80.6801 70.3046 80.7248 70.3046 80.8124C70.3046 80.9233 70.1509 81.052 69.8415 81.1933C69.5321 81.3364 69.2585 81.4079 69.0189 81.4079C68.6308 81.4079 68.2732 81.213 67.9441 80.8249C67.6168 80.4351 67.1894 79.7001 66.6655 78.6182C66.4616 78.1908 66.2935 77.9207 66.1612 77.8063C66.0288 77.6936 65.8142 77.6364 65.5156 77.6364H65.1651L64.9094 77.6829C64.8521 77.7133 64.8235 77.8063 64.8235 77.9601V79.1278H64.8271ZM64.8271 74.6177V76.6171C64.8271 76.8638 64.8575 77.0194 64.9201 77.0856C64.9827 77.1518 65.1311 77.1839 65.3654 77.1839C66.0396 77.1839 66.4562 77.1714 66.6172 77.1464C66.7781 77.1214 66.9284 77.0427 67.0678 76.9121C67.3432 76.6582 67.4827 76.3077 67.4827 75.8606C67.4827 75.2794 67.2967 74.7984 66.923 74.4192C66.5492 74.0401 66.0753 73.8506 65.5013 73.8506C65.2438 73.8506 65.0667 73.906 64.9702 74.0151C64.8754 74.1242 64.8271 74.3245 64.8271 74.6177Z" fill="black"/>
<path d="M72.8515 74.958V79.6362L72.8461 80.1566C72.8461 80.6644 72.7907 81.0883 72.678 81.4245C72.5672 81.7607 72.3705 82.0951 72.0915 82.4259C71.5586 83.0572 71.1061 83.3737 70.7324 83.3737C70.6501 83.3737 70.575 83.363 70.5106 83.3397L70.1941 83.236L69.9169 83.1609C69.8418 83.118 69.8043 83.0375 69.8043 82.9177C69.8043 82.8479 69.8132 82.7675 69.8329 82.6745L69.9688 81.9413C69.9885 81.8286 70.026 81.7732 70.0832 81.7732C70.187 81.7732 70.3157 81.8608 70.4731 82.0343L70.693 82.2846C70.8611 82.4742 71.006 82.5708 71.1258 82.5708C71.4173 82.5708 71.5621 82.2024 71.5621 81.4674L71.5514 81.04V76.6873C71.5514 75.7931 71.5407 75.1994 71.521 74.9044C71.4996 74.6093 71.4531 74.3893 71.3815 74.2427C71.3136 74.1086 71.2134 74.0138 71.0847 73.9601C70.9541 73.9065 70.7217 73.8636 70.3855 73.8332C70.2728 73.8207 70.2156 73.7652 70.2156 73.6633C70.2156 73.5309 70.3032 73.463 70.4767 73.463C70.5643 73.463 70.6913 73.4701 70.8629 73.4862C71.3958 73.5363 71.6963 73.5613 71.7642 73.5613C71.8966 73.5613 72.0951 73.5435 72.3597 73.5095C72.9034 73.4433 73.2217 73.4111 73.3111 73.4111C73.481 73.4111 73.5668 73.4648 73.5668 73.5703C73.5668 73.6365 73.5096 73.6883 73.3969 73.7241C73.1895 73.7903 73.0482 73.9101 72.9713 74.0853C72.8891 74.2588 72.8515 74.5503 72.8515 74.958Z" fill="black"/>
<path d="M78.2003 74.1267L80.779 80.1604C80.9077 80.4644 81.058 80.6915 81.2332 80.8417C81.4067 80.9919 81.632 81.0921 81.9074 81.1422C81.9754 81.1547 82.0093 81.2083 82.0093 81.3067C82.0093 81.4122 81.9664 81.4641 81.8788 81.4605C81.8287 81.4569 81.7572 81.4444 81.6624 81.4265C81.3709 81.3603 80.9024 81.3281 80.255 81.3281C79.6041 81.3281 79.1606 81.3585 78.9263 81.4193C78.8691 81.4354 78.8208 81.4444 78.7779 81.4444C78.6724 81.4444 78.6187 81.3889 78.6187 81.2799C78.6187 81.2244 78.6599 81.1833 78.7439 81.1565C78.9245 81.1028 79.0747 81.0063 79.1945 80.8686C79.3144 80.7291 79.3734 80.5842 79.3734 80.4286C79.3734 80.2123 79.2089 79.7384 78.8816 79.0069C78.7797 78.7834 78.667 78.6546 78.5454 78.6225C78.4238 78.5903 77.9892 78.5742 77.2435 78.5742H76.4746L75.9667 78.6672C75.8272 78.7333 75.6698 78.9855 75.4928 79.429L75.3175 79.8725C75.2639 79.9994 75.2388 80.1282 75.2388 80.2587C75.2388 80.7434 75.5715 81.0241 76.2367 81.101C76.3798 81.1207 76.4495 81.1779 76.4459 81.2709C76.4388 81.3729 76.3708 81.4247 76.2421 81.4247C76.1741 81.4247 76.0776 81.414 75.9524 81.3907C75.702 81.3407 75.4785 81.3156 75.2818 81.3156C75.1029 81.3156 74.8168 81.3353 74.418 81.3729C74.123 81.4033 73.9388 81.4193 73.8672 81.4193C73.7617 81.4193 73.7081 81.3729 73.7081 81.2781C73.7081 81.1994 73.7617 81.1404 73.8672 81.101C74.0711 81.0349 74.2338 80.9151 74.3572 80.7398C74.4806 80.5645 74.663 80.1962 74.9044 79.6346L76.4513 75.999C76.5765 75.7111 76.6623 75.5126 76.7124 75.4053L77.2399 74.3037L77.5118 73.7619V73.7798C77.6334 73.4865 77.7138 73.3398 77.755 73.3398C77.8158 73.3398 77.9195 73.5008 78.0661 73.8245L78.2003 74.1267ZM78.4131 77.7408L77.6727 75.9776C77.4957 75.5555 77.3687 75.3427 77.2936 75.3427C77.2489 75.3427 77.1648 75.4786 77.045 75.7522L76.9377 75.9937L76.2761 77.5316L76.2135 77.6765C76.1866 77.7337 76.1741 77.7838 76.1741 77.8267C76.1741 77.9572 76.31 78.0234 76.5819 78.0234H78.2539C78.397 78.0234 78.4685 77.9823 78.4685 77.9018C78.4685 77.8821 78.4596 77.8499 78.4399 77.8034L78.4131 77.7408Z" fill="black"/>
</svg>
