<svg width="157" height="64" viewBox="0 0 157 64" fill="none" xmlns="http://www.w3.org/2000/svg">
<path d="M121.727 47.7423H99.1926V42.6539H121.727V47.7423ZM124.635 6.06539C120.758 2.18846 116.154 0.25 110.339 0.25C104.766 0.25 99.9195 2.18846 96.0426 6.06539C91.9233 10.1846 89.9849 14.7885 89.9849 20.6039C89.9849 26.1769 91.9233 31.0231 96.0426 34.9C97.0118 35.8692 97.981 36.8385 99.1926 37.5654V40.4731H105.25V40.2308V34.1731C103.554 33.4462 101.858 32.2346 100.162 30.7808C97.2541 27.8731 96.0426 24.4808 96.0426 20.3615C96.0426 16.4846 97.2541 13.0923 100.162 10.4269C103.069 7.51923 106.462 6.06539 110.339 6.06539C114.458 6.06539 117.85 7.51923 120.516 10.4269C123.423 13.0923 124.877 16.4846 124.877 20.3615C124.877 24.4808 123.423 27.8731 120.516 30.7808C119.062 32.2346 117.366 33.4462 115.427 34.1731V40.2308V40.4731H121.727V37.5654C122.696 36.8385 123.666 35.8692 124.635 34.9C128.754 31.0231 130.693 26.1769 130.693 20.6039C130.693 14.7885 128.754 10.1846 124.635 6.06539ZM118.819 62.2808H102.1V57.1923H118.819V62.2808ZM121.727 55.0116H99.1926V49.9231H121.727V55.0116Z" fill="#EE7B24"/>
<path d="M35.9503 47.9845V51.3768H37.1618C37.6464 51.3768 38.131 51.1345 38.6157 50.8921C38.858 50.6498 39.1003 50.1652 39.1003 49.6806C39.1003 49.196 38.858 48.7114 38.6157 48.4691C38.131 48.2268 37.6464 47.9845 37.1618 47.9845H35.9503ZM131.42 47.4998V51.3768H132.389C133.116 51.3768 133.6 51.3768 134.085 50.8921C134.327 50.6498 134.57 50.1652 134.57 49.4383C134.57 48.9537 134.327 48.4691 134.085 47.9845C133.6 47.7421 133.116 47.4998 132.389 47.4998H131.42ZM124.393 62.2806V42.4114H133.358C135.781 42.4114 137.72 43.1383 139.173 44.1075C140.627 45.3191 141.354 47.0152 141.354 49.196C141.354 50.6498 140.87 51.6191 140.143 52.5883C139.658 53.5575 138.689 54.0421 137.477 54.2845L142.808 62.2806H134.812L131.42 55.7383V62.2806H124.393ZM80.5349 62.2806H74.2349L68.4195 42.4114H75.6887L77.8695 55.0114L80.0503 42.4114H85.1387L87.3195 55.0114L89.7426 42.4114H96.7695L90.9541 62.2806H84.8964L82.7157 53.5575L80.5349 62.2806ZM57.758 56.4652C58.7272 56.4652 59.4541 56.2229 60.181 55.496C60.908 54.7691 61.1503 53.7998 61.1503 52.5883C61.1503 51.3768 60.908 50.6498 60.181 49.9229C59.6964 49.196 58.7272 48.7114 57.758 48.7114C56.7887 48.7114 55.8195 49.196 55.3349 49.9229C54.608 50.6498 54.3657 51.3768 54.3657 52.5883C54.3657 53.3152 54.3657 53.7998 54.608 54.2845C54.608 54.7691 54.8503 55.0114 55.3349 55.496C55.8195 56.2229 56.7887 56.4652 57.758 56.4652ZM68.4195 52.5883C68.4195 54.0421 68.1772 55.496 67.6926 56.7075C67.208 58.1614 66.481 59.1306 65.5118 60.0998C64.5426 61.0691 63.331 61.796 61.8772 62.5229C60.6657 63.0075 59.2118 63.2498 57.758 63.2498C56.3041 63.2498 54.8503 63.0075 53.3964 62.5229C52.1849 62.0383 50.9733 61.0691 50.0041 60.0998C49.0349 59.1306 48.308 58.1614 47.8233 56.7075C47.0964 55.496 46.8541 54.0421 46.8541 52.5883C46.8541 51.1345 47.0964 49.6806 47.8233 48.4691C48.308 47.2575 49.0349 46.046 50.0041 45.0768C50.9733 44.1075 52.1849 43.3806 53.3964 42.896C54.8503 42.4114 56.3041 41.9268 57.758 41.9268C59.2118 41.9268 60.6657 42.4114 61.8772 42.896C63.331 43.3806 64.5426 44.1075 65.5118 45.0768C66.481 46.046 67.208 47.2575 67.6926 48.4691C68.1772 49.6806 68.4195 51.1345 68.4195 52.5883ZM28.9233 62.2806V42.4114H37.4041C40.3118 42.4114 42.4926 43.1383 43.9464 44.1075C45.158 45.3191 45.8849 47.2575 45.8849 49.6806C45.8849 52.1037 45.158 53.7998 43.9464 54.7691C42.7349 55.9806 40.7964 56.4652 38.131 56.4652H35.9503V62.2806H28.9233Z" fill="#0F613A"/>
<path d="M23.1082 13.0922H29.8929V37.3229H23.1082V13.0922ZM150.32 13.0922V28.1152L139.174 13.0922H132.874V37.3229H139.174C139.174 37.3229 139.416 27.146 139.416 22.2999L150.32 37.3229H156.62V13.0922H150.32ZM18.2621 29.5691C17.2928 31.0229 15.5967 31.7499 13.6582 31.7499C10.2659 31.7499 7.35823 28.8422 7.35823 24.9652C7.35823 21.3306 10.2659 18.1806 13.6582 18.1806C15.5967 18.1806 17.2928 19.1499 18.5044 20.6037L21.6544 15.0306C19.4736 13.5768 16.8082 12.3652 13.6582 12.3652C6.6313 12.3652 0.815918 18.1806 0.815918 25.2075C0.815918 32.2345 6.6313 37.8076 13.6582 37.8076C16.8082 37.8076 19.4736 36.8383 21.6544 35.1422L18.2621 29.5691ZM76.1736 32.2345H78.5967C80.2929 32.2345 81.2621 32.2345 81.989 31.7499C82.4736 31.2652 82.9583 30.7806 82.9583 29.8114C82.9583 28.8422 82.7159 28.1152 81.989 27.6306C81.5044 27.146 80.2929 27.146 78.5967 27.146H76.1736V32.2345ZM76.1736 22.7845H77.6275C79.3236 22.7845 80.2929 22.5422 81.0198 22.2999C81.5044 21.8152 81.989 21.3306 81.989 20.3614C81.989 19.3922 81.5044 18.6652 81.0198 18.4229C80.5352 17.9383 79.3236 17.9383 77.6275 17.9383H76.1736V22.7845ZM70.1159 37.3229V13.0922H76.9006C79.5659 13.0922 81.5044 13.0922 82.4736 13.3345C83.6852 13.5768 84.6544 13.8191 85.3813 14.3037C86.3506 14.7883 86.8352 15.2729 87.3198 16.2422C87.8044 16.9691 88.0467 17.9383 88.0467 19.1499C88.0467 20.6037 87.8044 21.5729 87.0775 22.2999C86.3506 23.2691 85.139 23.7537 83.6852 24.2383C85.3813 24.4806 86.8352 24.9652 87.8044 26.1768C88.7736 27.146 89.2583 28.5999 89.2583 30.296C89.2583 31.7499 89.0159 32.7191 88.289 33.6883C87.8044 34.6575 87.0775 35.6268 86.1083 36.1114C85.139 36.596 84.1698 36.8383 82.9583 37.0806C81.7467 37.3229 79.8083 37.3229 76.9006 37.3229H70.1159ZM53.1544 37.3229V13.0922H67.9352V18.4229H59.6967V22.5422H67.4506V27.8729H59.6967V31.7499H67.9352V37.3229H53.1544ZM39.1005 24.4806H40.3121C41.7659 24.4806 42.7352 24.2383 43.4621 23.7537C44.189 23.2691 44.4313 22.5422 44.4313 21.5729C44.4313 20.3614 44.189 19.3922 43.4621 18.9075C42.9775 18.4229 41.7659 18.1806 40.5544 18.1806H39.1005V24.4806ZM33.0429 37.3229V13.0922H39.8275C42.4929 13.0922 44.4313 13.0922 45.4005 13.3345C46.6121 13.5768 47.5813 14.0614 48.3082 14.7883C49.0352 15.2729 49.7621 16.2422 50.2467 17.2114C50.7313 18.1806 50.9736 19.3922 50.9736 20.6037C50.9736 22.5422 50.489 23.996 49.5198 25.2075C48.5505 26.4191 47.339 27.146 45.6429 27.6306L52.1852 37.3229H44.6736L39.1005 27.8729V37.3229H33.0429Z" fill="#4C4B4A"/>
</svg>
