<svg width="213" height="64" viewBox="0 0 213 64" fill="none" xmlns="http://www.w3.org/2000/svg">
<path fill-rule="evenodd" clip-rule="evenodd" d="M193.374 2.04296C191.342 3.43625 190.953 4.92141 190.953 11.2847V16.7556H190.154C186.364 16.7556 183.88 19.8351 184.517 23.7451C184.937 26.3285 186.792 27.9249 189.374 27.9249H190.953L190.958 37.563C190.965 48.269 191.215 50.5425 192.784 54.1233C195.182 59.597 199.528 62.6116 205.69 63.0732C208.358 63.2729 208.744 63.2173 210.02 62.4527C213.252 60.514 213.548 55.5774 210.583 53.0312C209.947 52.4857 209.035 52.2429 206.98 52.072C203.739 51.8025 202.593 51.1637 201.534 49.0351C200.816 47.5892 200.802 47.3783 200.802 37.8333V28.1051L204.554 27.9249C208.458 27.7375 209.049 27.5369 210.325 25.9648C211.402 24.6375 211.597 21.0627 210.683 19.3854C209.646 17.4837 208.454 17.0042 204.32 16.8255L200.646 16.6666V11.0909C200.646 4.87818 200.375 3.66035 198.682 2.27103C197.278 1.11914 194.871 1.01538 193.374 2.04296ZM160.814 17.1692C152.686 18.1391 145.444 25.4071 143.594 34.4515C142.994 37.3806 142.99 42.586 143.584 45.488C145.878 56.7016 155.852 64.5429 165.708 62.8823C168.973 62.3324 171.718 61.1314 174.389 59.0853C176.71 57.3074 177.873 55.9316 179.623 52.8928C180.726 50.98 180.746 50.888 180.173 50.4049C179.731 50.0328 178.444 49.9035 175.176 49.9035C171.011 49.9035 170.713 49.9513 169.639 50.7926C167.499 52.468 165.971 52.9661 162.969 52.9661C160.539 52.9661 159.92 52.8326 158.435 51.9882C157.489 51.4501 156.182 50.5008 155.53 49.8783C154.382 48.7815 152.503 45.5049 152.497 44.589C152.495 44.235 155.639 44.1386 167.183 44.1386H181.871L182.414 43.1845C183.642 41.0234 183.099 34.6622 181.312 30.3008C177.628 21.3058 169.544 16.1276 160.814 17.1692ZM112.405 17.6747C106.806 19.2395 101.923 23.9327 99.0398 30.5239C96.9569 35.2841 96.6816 37.4413 96.6816 49.0026C96.6816 58.4433 96.7216 59.1696 97.3071 60.3144C98.3153 62.2873 99.4534 63.0545 101.372 63.0545C103.18 63.0545 104.224 62.4143 105.417 60.5749C106.024 59.6399 106.072 58.9599 106.23 49.0675C106.384 39.4817 106.457 38.3879 107.057 36.6735C110.872 25.7642 122.007 25.036 126.457 35.4044L127.636 38.1528L127.793 48.6218C127.937 58.2567 127.999 59.1887 128.574 60.3144C129.583 62.2873 130.721 63.0545 132.639 63.0545C134.685 63.0545 135.781 62.242 136.782 59.9847C137.457 58.4634 137.486 58.0246 137.483 49.3766C137.481 39.7321 137.252 37.0914 136.083 33.2089C134.973 29.5243 133.54 26.9821 130.763 23.7736C128.027 20.6118 125.204 18.7246 121.651 17.6804C119.312 16.9934 114.854 16.9908 112.405 17.6747ZM167.77 28.1106C168.826 28.6571 170.201 29.7732 171.013 30.744C172.405 32.4086 174.069 35.038 174.069 35.5749C174.069 35.7269 169.214 35.8515 163.281 35.8515C156.023 35.8515 152.494 35.7291 152.494 35.4769C152.494 34.651 153.841 32.1383 154.998 30.8048C156.324 29.2769 158.669 27.7582 160.544 27.2126C162.481 26.6492 165.723 27.0524 167.77 28.1106Z" fill="#C60B09"/>
<path fill-rule="evenodd" clip-rule="evenodd" d="M43.6809 0.602096C41.2255 1.41422 39.616 3.80626 39.616 6.64364C39.616 13.2332 47.0246 15.461 49.8462 9.71956C52.1339 5.06553 48.122 -0.867219 43.6809 0.602096ZM11.0495 17.6876C6.55167 18.9422 2.99499 21.9533 1.29592 25.944C0.490154 27.8367 0.377278 28.487 0.391349 31.1684C0.403856 33.587 0.555503 34.5822 1.11238 35.9013C2.21331 38.5085 3.75386 40.3158 6.06576 41.7123C8.62657 43.2595 10.6067 43.8737 16.1655 44.8465C22.519 45.9589 23.6697 46.6156 23.6697 49.1323C23.6697 51.92 20.4638 53.7677 16.2624 53.4015C13.3605 53.1487 11.2749 52.0519 8.77384 49.4638C6.69238 47.3096 5.44011 46.7932 3.696 47.3697C2.00756 47.9274 1.14146 48.7728 0.472957 50.5138C-0.121437 52.0624 -0.127378 52.2209 0.357894 53.6848C1.02796 55.7067 3.9227 58.8695 6.4466 60.3378C9.65184 62.2022 12.6516 62.9574 16.9472 62.9813C21.2304 63.0051 23.6508 62.4091 26.64 60.5947C35.0999 55.4589 35.41 43.0386 27.1985 38.2473C24.9785 36.952 22.792 36.2868 17.4937 35.2963C14.8707 34.8061 12.1751 34.1513 11.5032 33.8414C9.29038 32.821 9.0762 30.287 11.0354 28.3051C12.4237 26.9002 14.276 26.3511 16.7433 26.6135C19.3494 26.8901 21.5378 28.086 23.9188 30.5343C26.0732 32.7493 27.3048 33.2279 29.2769 32.616C31.8133 31.8291 33.204 29.026 32.4186 26.2834C31.8934 24.4495 28.8678 21.1227 26.4474 19.7176C22.216 17.2618 15.6705 16.3988 11.0495 17.6876ZM42.8109 17.7158C42.2466 18.0364 41.4727 18.8028 41.0912 19.4189L40.3978 20.5395V40.2396C40.3978 59.7037 40.4055 59.9519 41.0559 60.9572C42.0596 62.5086 43.5785 63.374 45.2992 63.374C46.9307 63.374 47.9889 62.7007 49.1333 60.9351C49.7627 59.9638 49.7803 59.4897 49.8643 40.8533C49.9468 22.5691 49.9246 21.6989 49.3383 20.1716C48.9682 19.2078 48.3159 18.2886 47.6887 17.848C46.4235 16.9591 44.2471 16.9 42.8109 17.7158ZM67.8699 17.8303C63.3719 19.1894 60.1841 21.857 58.5107 25.6626C57.6887 27.5321 57.5948 28.096 57.5964 31.1684C57.5976 34.1751 57.699 34.8122 58.4282 36.4073C59.3273 38.3737 61.4457 40.8312 63.0817 41.8064C65.1662 43.0483 67.7217 43.8377 72.4284 44.6928C77.9338 45.6933 79.1963 46.0896 80.1856 47.1287C81.5451 48.557 80.7763 51.1886 78.6156 52.503C77.5188 53.1702 76.7868 53.3086 74.3229 53.3137C71.7265 53.3186 71.1189 53.194 69.4971 52.322C68.4765 51.7734 66.9157 50.5332 66.028 49.5658C64.0909 47.4551 62.6171 46.8696 60.6651 47.436C59.1868 47.8648 57.5899 49.6249 57.2456 51.2044C56.4057 55.0604 61.8406 60.5867 68.2345 62.3782C71.2146 63.213 76.9425 63.2264 79.6383 62.4044C84.1637 61.0245 87.8831 57.8149 89.4254 53.9579C90.4464 51.4048 90.4076 46.4506 89.3476 43.9684C87.2477 39.0503 83.3535 36.7664 74.6109 35.3241C68.3334 34.2885 66.8168 33.4815 66.82 31.1781C66.8243 27.6432 71.3373 25.5441 75.7656 27.0169C77.9877 27.756 79.2739 28.6333 81.4206 30.8733C83.3921 32.9307 84.6935 33.3201 86.6784 32.4467C88.6294 31.5878 89.6439 30.0874 89.6439 28.0604C89.6439 25.9231 89.0962 24.8066 86.9237 22.515C84.7876 20.2619 81.5752 18.4032 78.535 17.661C75.4943 16.9188 70.6319 16.9962 67.8699 17.8303Z" fill="#2F2F37"/>
</svg>
