<svg width="40" height="37" viewBox="0 0 40 37" fill="none" xmlns="http://www.w3.org/2000/svg">
<path fill-rule="evenodd" clip-rule="evenodd" d="M18.927 28.9013H18.9303C19.1662 25.8023 19.3542 22.7031 18.3774 19.604C17.8338 19.8989 17.2716 20.1327 16.6969 20.311C14.1991 21.0855 11.4852 20.7981 9.1178 19.906C6.7536 19.0152 4.7112 17.5065 3.5603 15.8417C3.18508 15.2989 2.90002 14.7348 2.72279 14.1634L2.51022 13.4778L3.14035 13.1265C3.49945 12.9263 3.84592 12.7474 4.17978 12.5886C8.43354 10.5664 11.8317 11.105 14.3635 12.4951C14.9144 12.7977 15.4227 13.1412 15.8883 13.5075C14.8551 7.56972 19.4312 1.48389 19.4487 1.46005L20.1561 0.50293L20.8718 1.45318C20.8743 1.45655 24.5743 6.37886 24.5743 11.6692H24.5778C24.5778 12.2727 24.5309 12.8802 24.427 13.4852C24.8849 13.1274 25.3835 12.7917 25.9232 12.4953C28.4548 11.1052 31.8531 10.5664 36.1068 12.5888C36.4408 12.7475 36.7871 12.9264 37.1462 13.1267L37.7763 13.4779L37.5638 14.1636C37.3865 14.7349 37.1015 15.299 36.7262 15.8418C35.5753 17.5068 33.5329 19.0154 31.1687 19.9062C28.8013 20.7982 26.0874 21.0857 23.5896 20.3111C23.028 20.1369 22.4781 19.9095 21.9458 19.6239C20.9766 22.7153 21.1638 25.8065 21.399 28.8977C21.7836 27.3437 22.503 25.5274 23.8784 24.0714C26.301 21.5066 30.6527 20.0999 38.5154 23.2844L39.6324 23.7367L38.8704 24.6692C33.5071 31.2322 23.8754 32.4516 22.1777 32.6188V36.5206H18.0803V32.6122C16.2119 32.4209 6.7515 31.1513 1.45438 24.6693L0.692444 23.7369L1.80927 23.2845C9.67194 20.1001 14.0239 21.5069 16.4464 24.0716C17.8227 25.5289 18.5425 27.3468 18.9267 28.9016L18.927 28.9013ZM20.2265 20.9189L20.6292 20.2215L21.0319 19.5241H20.2266H19.4214L19.8241 20.2215L20.2268 20.9189H20.2265ZM20.1613 3.59009C18.5498 6.20681 15.1468 13.0459 20.1635 17.6687C22.1245 15.864 22.7965 13.737 22.7965 11.6692H22.8C22.8 8.36854 21.1439 5.18716 20.1613 3.59009ZM17.5354 18.0403C16.829 16.859 15.4876 15.1412 13.5076 14.0539C11.4112 12.9027 8.5652 12.4718 4.93835 14.1961C4.85969 14.2334 4.78117 14.2715 4.70279 14.3104C4.79505 14.4847 4.90176 14.6591 5.02178 14.8325C5.97442 16.2106 7.70946 17.4762 9.74429 18.2429C11.7759 19.0083 14.0829 19.2619 16.1752 18.6131C16.6403 18.4688 17.0956 18.2794 17.5354 18.0404V18.0403ZM26.7794 14.0539C24.7994 15.1412 23.4581 16.8588 22.7515 18.0403C23.1914 18.2792 23.6465 18.4686 24.1118 18.6129C26.2041 19.2617 28.5111 19.0083 30.5427 18.2428C32.5775 17.4761 34.3125 16.2105 35.2652 14.8324C35.3851 14.659 35.4919 14.4845 35.5842 14.3102C35.5058 14.2714 35.4273 14.2333 35.3486 14.196C31.7218 12.4717 28.8759 12.9026 26.7794 14.0538V14.0539ZM25.1732 25.2889C23.6182 26.9354 23.0663 29.2282 22.8535 30.7467C25.4571 30.3881 32.2455 29.0459 36.6631 24.4796C30.4397 22.2356 27.0382 23.3143 25.1732 25.2888V25.2889ZM17.4721 30.7467C17.2592 29.2282 16.7073 26.9354 15.1523 25.2889C13.2873 23.3144 9.88577 22.2357 3.66238 24.4797C8.08005 29.0461 14.8684 30.3881 17.4721 30.7469V30.7467Z" fill="#1C6F0A"/>
</svg>
