<svg width="85" height="84" viewBox="0 0 85 84" fill="none" xmlns="http://www.w3.org/2000/svg">
<path d="M44.2269 81.0068C43.7409 81.5321 43.2747 82.036 43.2422 82.0705L42.2369 83.1374L41.1602 82.1458C40.2955 81.3494 39.4288 80.4788 38.5619 79.6079C37.0283 78.0673 35.4936 76.5258 33.8869 75.3582C33.1014 74.7875 31.3805 74.4569 29.3863 74.0739C26.248 73.4713 22.5168 72.7546 19.5057 70.5668C16.5634 68.4291 14.4488 64.9733 12.6335 62.0066C11.4065 60.0012 10.3313 58.2441 9.41735 57.5802C7.52428 56.2048 4.90545 54.9962 2.72886 53.9916C2.28745 53.7879 1.86386 53.5924 1.41488 53.3803L0.0917969 52.7551L0.7016 51.426C1.19615 50.348 1.75379 49.2597 2.31157 48.1712C3.3015 46.2393 4.29214 44.3059 4.90923 42.4068C5.20677 41.4912 4.98873 39.747 4.73592 37.7261C4.34009 34.5601 3.86938 30.7963 5.02211 27.2488C6.14566 23.7907 8.77796 20.7128 11.0378 18.0706C12.5668 16.2828 13.9063 14.7165 14.2557 13.6411C14.9746 11.4288 15.3154 8.55896 15.5988 6.17373C15.6297 5.91363 15.6595 5.66264 15.7781 4.73581L15.9645 3.27965L17.4135 3.44848C18.5473 3.58056 19.7766 3.77813 21.0063 3.97583C23.1638 4.32259 25.3227 4.66962 27.2918 4.66962V4.66374C28.2727 4.66374 29.8556 3.92129 31.69 3.06106C34.5869 1.70235 38.0309 0.0869141 41.7428 0.0869141C45.3756 0.0869141 49.1182 1.6401 52.3313 2.97356C54.502 3.87431 56.4038 4.6636 57.5378 4.6636C59.8793 4.6636 62.7092 4.10189 65.0612 3.6351C65.4354 3.56079 65.7959 3.48928 66.4821 3.35958L67.9159 3.08854L68.2044 4.5252C68.4425 5.71074 68.6293 6.90763 68.8161 8.1048C69.1507 10.2493 69.4856 12.3952 70.1016 14.2909C70.4013 15.2135 71.5985 16.4916 72.9858 17.9727C75.1712 20.3059 77.7696 23.0797 78.9199 26.6204C80.0458 30.0854 79.7256 34.1183 79.451 37.5806C79.2645 39.93 79.1011 41.9884 79.4483 43.0567C80.1729 45.287 81.5807 47.8032 82.7508 49.8945C82.9826 50.3088 83.2048 50.7059 83.4541 51.1612L84.1566 52.4438L82.8801 53.1618C81.866 53.7322 80.7651 54.29 79.6638 54.8479C77.7242 55.8306 75.7833 56.8142 74.176 57.9818C73.3934 58.5502 72.5476 60.0843 71.5674 61.862C70.024 64.661 68.1891 67.9888 65.175 70.1787C62.241 72.3103 58.2977 73.2544 54.9121 74.0647C52.629 74.6112 50.6287 75.0901 49.7063 75.7602C47.7987 77.1462 45.8481 79.2545 44.2266 81.007L44.2269 81.0068ZM42.1016 78.9532C43.8203 77.0957 45.8809 74.8746 47.9668 73.3591C49.3465 72.3567 51.6262 71.811 54.228 71.1881C57.3372 70.4439 60.9589 69.5769 63.4354 67.7778C65.914 65.977 67.5736 62.9671 68.9696 60.4353C70.1229 58.3436 71.1183 56.5384 72.4363 55.5809C74.2155 54.2882 76.2735 53.2454 78.3301 52.2035C78.932 51.8985 79.5338 51.5935 80.1341 51.2782C78.9026 49.0769 77.4311 46.4384 76.6299 43.9729C76.0978 42.335 76.2826 40.0064 76.4935 37.3486C76.747 34.1536 77.0424 30.4321 76.1017 27.5366C75.1541 24.6201 72.8048 22.1119 70.8287 20.0023C69.1955 18.2586 67.7859 16.7538 67.2833 15.2072C66.606 13.1222 66.2495 10.8388 65.8935 8.557C65.7889 7.88676 65.6843 7.21667 65.5721 6.55751C63.0988 7.04841 60.1352 7.63269 57.5378 7.63269C55.8262 7.63269 53.6634 6.73516 51.1947 5.7106C48.2398 4.4844 44.7977 3.05601 41.7428 3.05601C38.6652 3.05601 35.557 4.51384 32.9425 5.74004C30.7765 6.75605 28.9072 7.63269 27.2918 7.63269V7.6268C25.075 7.6268 22.8078 7.26238 20.5423 6.89823C19.8777 6.79139 19.213 6.68454 18.5369 6.58653C18.2402 9.08478 17.8804 12.0755 17.074 14.5572C16.5442 16.188 15.0235 17.9661 13.2878 19.9956C11.2071 22.4285 8.78343 25.2623 7.84047 28.1648C6.89498 31.0744 7.3225 34.4918 7.68188 37.3663C7.97732 39.7296 8.23251 41.7692 7.72759 43.323C7.05119 45.4049 5.99731 47.4615 4.94443 49.5165C4.63539 50.1197 4.32635 50.7226 4.02755 51.3272C6.31673 52.3838 9.05629 53.6529 11.1573 55.1793C12.5456 56.1879 13.7674 58.1847 15.162 60.4639C16.8322 63.1934 18.7777 66.3728 21.2456 68.1659C23.7272 69.9688 27.1035 70.6173 29.9433 71.1628C32.2883 71.6131 34.3119 72.0018 35.627 72.9572C37.4066 74.2502 39.0345 75.8857 40.6615 77.5201C41.1393 78.0002 41.6172 78.4801 42.1018 78.9529L42.1016 78.9532Z" fill="#842B24"/>
</svg>
