<svg width="113" height="84" viewBox="0 0 113 84" fill="none" xmlns="http://www.w3.org/2000/svg">
<path d="M111.978 80.4457C111.978 81.654 111.091 82.4649 110.041 82.4649V82.4575C108.961 82.4649 108.09 81.6539 108.09 80.446C108.09 79.2385 108.961 78.4298 110.041 78.4298C111.091 78.4295 111.978 79.2382 111.978 80.4457ZM112.764 80.4457C112.764 78.7877 111.476 77.8252 110.041 77.8252C108.595 77.8252 107.307 78.7877 107.307 80.4457C107.307 82.1028 108.596 83.0692 110.041 83.0692C111.477 83.0692 112.764 82.1028 112.764 80.4457ZM109.589 80.6674H109.881L110.556 81.8539H111.298L110.55 80.6175C110.937 80.5899 111.255 80.4057 111.255 79.885C111.255 79.2382 110.809 79.0302 110.053 79.0302H108.96V81.8539H109.589V80.6674H109.589ZM109.589 80.1894V79.5095H110.026C110.264 79.5095 110.588 79.5288 110.588 79.8187C110.588 80.1343 110.42 80.1894 110.14 80.1894H109.589Z" fill="black"/>
<path d="M94.4235 66.0015L97.8191 75.2908H90.9228L94.4235 66.0015ZM90.787 62.3845L82.9619 82.2108H88.4875L89.7252 78.7075H98.9856L100.157 82.2108H106.156L98.2721 62.382L90.787 62.3845ZM75.0769 82.2181H80.6829V62.3784L75.0759 62.3772L75.0769 82.2181ZM36.1591 62.3772L31.4819 78.1017L27.0015 62.3784L20.9527 62.3772L27.3517 82.2181H35.428L41.8785 62.3772H36.1591ZM58.8193 66.6974H61.2286C64.7242 66.6974 66.9849 68.2667 66.9849 72.3393C66.9849 76.4128 64.7242 77.9825 61.2286 77.9825H58.8193V66.6974ZM53.2603 62.3772V82.2181H62.3488C67.1909 82.2181 68.7721 81.4133 70.4818 79.6075C71.6893 78.3397 72.4705 75.5574 72.4705 72.5158C72.4705 69.7261 71.8095 67.2395 70.657 65.6901C68.5805 62.919 65.5893 62.3772 61.1252 62.3772H53.2603ZM0.156616 62.3496V82.2181H5.81004V67.1319L10.1905 67.1332C11.641 67.1332 12.6749 67.4946 13.3734 68.2408C14.2593 69.1843 14.621 70.7075 14.621 73.4937V82.2181H20.0992V71.2407C20.0992 63.406 15.1054 62.3496 10.2194 62.3496H0.156616ZM44.2379 62.3772L44.2402 82.2181H49.8436V62.3772H44.2379Z" fill="black"/>
<path d="M15.2223 22.8721C15.2223 22.8721 22.4325 12.234 36.829 11.1334V7.27388C20.8831 8.55451 7.07458 22.0599 7.07458 22.0599C7.07458 22.0599 14.8955 44.6688 36.829 46.7389V42.6365C20.7332 40.6116 15.2223 22.8721 15.2223 22.8721ZM36.829 34.4779V38.2349C24.6641 36.0661 21.2874 23.4207 21.2874 23.4207C21.2874 23.4207 27.1283 16.9502 36.829 15.9009V20.0235C36.8216 20.0235 36.8165 20.0212 36.8104 20.0212C31.719 19.4102 27.7415 24.1665 27.7415 24.1665C27.7415 24.1665 29.9709 32.1736 36.829 34.4779ZM36.829 0.155273V7.27388C37.2971 7.23799 37.7652 7.20755 38.2359 7.19153C56.3646 6.58054 68.1767 22.0599 68.1767 22.0599C68.1767 22.0599 54.6101 38.5566 40.4761 38.5566C39.1807 38.5566 37.968 38.4364 36.829 38.2346V42.6365C37.803 42.7602 38.8129 42.8329 39.8667 42.8329C53.0193 42.8329 62.531 36.1158 71.7412 28.1658C73.2682 29.3887 79.5198 32.3639 80.8049 33.6663C72.0478 40.998 51.6388 46.9081 40.0682 46.9081C38.9529 46.9081 37.8818 46.8405 36.829 46.7389V52.9245H86.8213V0.155273H36.829ZM36.829 15.9009V11.1337C37.2923 11.1014 37.7591 11.0764 38.2359 11.0613C51.2722 10.6518 59.8249 22.264 59.8249 22.264C59.8249 22.264 50.5872 35.0937 40.6824 35.0937C39.257 35.0937 37.9789 34.8646 36.8287 34.4779V20.0235C41.9038 20.6367 42.9252 22.8785 45.9764 27.9649L52.7624 22.2429C52.7624 22.2429 47.8087 15.7462 39.4582 15.7462C38.5505 15.7458 37.6819 15.8096 36.829 15.9009Z" fill="#77B900"/>
</svg>
