<svg width="85" height="84" viewBox="0 0 85 84" fill="none" xmlns="http://www.w3.org/2000/svg">
<path fill-rule="evenodd" clip-rule="evenodd" d="M42.1634 81.0556C43.9947 79.1117 46.4218 76.3139 48.8364 74.5595C51.5179 72.6112 59.565 72.4218 64.305 68.9781C69.0449 65.5343 70.8087 58.5956 73.306 56.7812C75.9049 54.893 79.2251 53.5163 82.1549 51.8685C80.8721 49.526 78.9612 46.3532 78.039 43.5145C77.0147 40.3623 79.3213 32.6505 77.5108 27.0783C75.7003 21.5062 69.6462 17.6846 68.6924 14.7489C67.6997 11.6937 67.4166 8.11059 66.7546 4.81493C64.1305 5.31116 60.5224 6.14797 57.5376 6.14797C54.223 6.14797 47.6015 1.57129 41.7426 1.57129C35.8837 1.57129 30.3784 6.14811 27.2915 6.14811C24.079 6.14811 20.5838 5.31017 17.245 4.92121C16.9059 7.57033 16.587 11.2604 15.6646 14.0991C14.6403 17.2513 8.24152 22.1347 6.43104 27.7067C4.62056 33.2788 7.2722 39.929 6.31816 42.8648C5.32543 45.9201 3.44848 48.9852 2.04688 52.0406C4.46169 53.1816 7.87247 54.6253 10.2871 56.3797C12.9687 58.3279 15.6356 65.9226 20.3755 69.3663C25.1154 72.8101 32.2596 72.3433 34.7568 74.1577C37.3557 76.046 39.6909 78.7782 42.1635 81.0555L42.1634 81.0556Z" fill="#F8EE05"/>
<path d="M44.2269 81.0068C43.7409 81.5321 43.2747 82.036 43.2422 82.0705L42.2369 83.1374L41.1602 82.1458C40.2955 81.3494 39.4288 80.4788 38.5619 79.6079C37.0283 78.0673 35.4936 76.5258 33.8869 75.3582C33.1014 74.7875 31.3805 74.4569 29.3863 74.0739C26.248 73.4713 22.5168 72.7546 19.5057 70.5668C16.5634 68.4291 14.4488 64.9733 12.6335 62.0066C11.4065 60.0012 10.3313 58.2441 9.41735 57.5802C7.52428 56.2048 4.90545 54.9962 2.72886 53.9916C2.28745 53.7879 1.86386 53.5924 1.41488 53.3803L0.0917969 52.7551L0.7016 51.426C1.19615 50.348 1.75379 49.2597 2.31157 48.1712C3.3015 46.2393 4.29214 44.3059 4.90923 42.4068C5.20677 41.4912 4.98873 39.747 4.73592 37.7261C4.34009 34.5601 3.86938 30.7963 5.02211 27.2488C6.14566 23.7907 8.77796 20.7128 11.0378 18.0706C12.5668 16.2828 13.9063 14.7165 14.2557 13.6411C14.9746 11.4288 15.3154 8.55896 15.5988 6.17373C15.6297 5.91363 15.6595 5.66264 15.7781 4.73581L15.9645 3.27965L17.4135 3.44848C18.5473 3.58056 19.7766 3.77813 21.0063 3.97583C23.1638 4.32259 25.3227 4.66962 27.2918 4.66962V4.66374C28.2727 4.66374 29.8556 3.92129 31.69 3.06106C34.5869 1.70235 38.0309 0.0869141 41.7428 0.0869141C45.3756 0.0869141 49.1182 1.6401 52.3313 2.97356C54.502 3.87431 56.4038 4.6636 57.5378 4.6636C59.8793 4.6636 62.7092 4.10189 65.0612 3.6351C65.4354 3.56079 65.7959 3.48928 66.4821 3.35958L67.9159 3.08854L68.2044 4.5252C68.4425 5.71074 68.6293 6.90763 68.8161 8.1048C69.1507 10.2493 69.4856 12.3952 70.1016 14.2909C70.4013 15.2135 71.5985 16.4916 72.9858 17.9727C75.1712 20.3059 77.7696 23.0797 78.9199 26.6204C80.0458 30.0854 79.7256 34.1183 79.451 37.5806C79.2645 39.93 79.1011 41.9884 79.4483 43.0567C80.1729 45.287 81.5807 47.8032 82.7508 49.8945C82.9826 50.3088 83.2048 50.7059 83.4541 51.1612L84.1566 52.4438L82.8801 53.1618C81.866 53.7322 80.7651 54.29 79.6638 54.8479C77.7242 55.8306 75.7833 56.8142 74.176 57.9818C73.3934 58.5502 72.5476 60.0843 71.5674 61.862C70.024 64.661 68.1891 67.9888 65.175 70.1787C62.241 72.3103 58.2977 73.2544 54.9121 74.0647C52.629 74.6112 50.6287 75.0901 49.7063 75.7602C47.7987 77.1462 45.8481 79.2545 44.2266 81.007L44.2269 81.0068ZM42.1016 78.9532C43.8203 77.0957 45.8809 74.8746 47.9668 73.3591C49.3465 72.3567 51.6262 71.811 54.228 71.1881C57.3372 70.4439 60.9589 69.5769 63.4354 67.7778C65.914 65.977 67.5736 62.9671 68.9696 60.4353C70.1229 58.3436 71.1183 56.5384 72.4363 55.5809C74.2155 54.2882 76.2735 53.2454 78.3301 52.2035C78.932 51.8985 79.5338 51.5935 80.1341 51.2782C78.9026 49.0769 77.4311 46.4384 76.6299 43.9729C76.0978 42.335 76.2826 40.0064 76.4935 37.3486C76.747 34.1536 77.0424 30.4321 76.1017 27.5366C75.1541 24.6201 72.8048 22.1119 70.8287 20.0023C69.1955 18.2586 67.7859 16.7538 67.2833 15.2072C66.606 13.1222 66.2495 10.8388 65.8935 8.557C65.7889 7.88676 65.6843 7.21667 65.5721 6.55751C63.0988 7.04841 60.1352 7.63269 57.5378 7.63269C55.8262 7.63269 53.6634 6.73516 51.1947 5.7106C48.2398 4.4844 44.7977 3.05601 41.7428 3.05601C38.6652 3.05601 35.557 4.51384 32.9425 5.74004C30.7765 6.75605 28.9072 7.63269 27.2918 7.63269V7.6268C25.075 7.6268 22.8078 7.26238 20.5423 6.89823C19.8777 6.79139 19.213 6.68454 18.5369 6.58653C18.2402 9.08478 17.8804 12.0755 17.074 14.5572C16.5442 16.188 15.0235 17.9661 13.2878 19.9956C11.2071 22.4285 8.78343 25.2623 7.84047 28.1648C6.89498 31.0744 7.3225 34.4918 7.68188 37.3663C7.97732 39.7296 8.23251 41.7692 7.72759 43.323C7.05119 45.4049 5.99731 47.4615 4.94443 49.5165C4.63539 50.1197 4.32635 50.7226 4.02755 51.3272C6.31673 52.3838 9.05629 53.6529 11.1573 55.1793C12.5456 56.1879 13.7674 58.1847 15.162 60.4639C16.8322 63.1934 18.7777 66.3728 21.2456 68.1659C23.7272 69.9688 27.1035 70.6173 29.9433 71.1628C32.2883 71.6131 34.3119 72.0018 35.627 72.9572C37.4066 74.2502 39.0345 75.8857 40.6615 77.5201C41.1393 78.0002 41.6172 78.4801 42.1018 78.9529L42.1016 78.9532Z" fill="#842B24"/>
<path d="M41.7426 12.1221C49.302 12.1221 56.1458 15.1862 61.0998 20.1402C66.0539 25.0942 69.118 31.9381 69.118 39.4975C69.118 47.0568 66.0539 53.9007 61.0998 58.8547C56.1458 63.8087 49.302 66.8729 41.7426 66.8729C34.1832 66.8729 27.3394 63.8087 22.3854 58.8547C17.4314 53.9007 14.3672 47.0568 14.3672 39.4975C14.3672 31.9381 17.4314 25.0942 22.3854 20.1402C27.3394 15.1862 34.1832 12.1221 41.7426 12.1221ZM59.8403 21.3998C55.2088 16.7683 48.8103 13.9037 41.7426 13.9037C34.675 13.9037 28.2765 16.7683 23.645 21.3998C19.0134 26.0313 16.1488 32.4298 16.1488 39.4975C16.1488 46.5651 19.0134 52.9636 23.645 57.5951C28.2765 62.2266 34.675 65.0914 41.7426 65.0914C48.8103 65.0914 55.2088 62.2268 59.8403 57.5951C64.4718 52.9636 67.3366 46.5651 67.3366 39.4975C67.3366 32.4298 64.4719 26.0313 59.8403 21.3998Z" fill="#FF0000"/>
<path fill-rule="evenodd" clip-rule="evenodd" d="M40.927 46.9013H40.9303C41.1662 43.8023 41.3542 40.7031 40.3774 37.604C39.8338 37.8989 39.2716 38.1327 38.6969 38.311C36.1991 39.0855 33.4852 38.7981 31.1178 37.906C28.7536 37.0152 26.7112 35.5065 25.5603 33.8417C25.1851 33.2989 24.9 32.7348 24.7228 32.1634L24.5102 31.4778L25.1404 31.1265C25.4994 30.9263 25.8459 30.7474 26.1798 30.5886C30.4335 28.5664 33.8317 29.105 36.3635 30.4951C36.9144 30.7977 37.4227 31.1412 37.8883 31.5075C36.8551 25.5697 41.4312 19.4839 41.4487 19.4601L42.1561 18.5029L42.8718 19.4532C42.8743 19.4565 46.5743 24.3789 46.5743 29.6692H46.5778C46.5778 30.2727 46.5309 30.8802 46.427 31.4852C46.8849 31.1274 47.3835 30.7917 47.9232 30.4953C50.4548 29.1052 53.8531 28.5664 58.1068 30.5888C58.4408 30.7475 58.7871 30.9264 59.1462 31.1267L59.7763 31.4779L59.5638 32.1636C59.3865 32.7349 59.1015 33.299 58.7262 33.8418C57.5753 35.5068 55.5329 37.0154 53.1687 37.9062C50.8013 38.7982 48.0874 39.0857 45.5896 38.3111C45.028 38.1369 44.4781 37.9095 43.9458 37.6239C42.9766 40.7153 43.1638 43.8065 43.399 46.8977C43.7836 45.3437 44.503 43.5274 45.8784 42.0714C48.301 39.5066 52.6527 38.0999 60.5154 41.2844L61.6324 41.7367L60.8704 42.6692C55.5071 49.2322 45.8754 50.4516 44.1777 50.6188V54.5206H40.0803V50.6122C38.2119 50.4209 28.7515 49.1513 23.4544 42.6693L22.6924 41.7369L23.8093 41.2845C31.6719 38.1001 36.0239 39.5069 38.4464 42.0716C39.8227 43.5289 40.5425 45.3468 40.9267 46.9016L40.927 46.9013ZM42.2265 38.9189L42.6292 38.2215L43.0319 37.5241H42.2266H41.4214L41.8241 38.2215L42.2268 38.9189H42.2265ZM42.1613 21.5901C40.5498 24.2068 37.1468 31.0459 42.1635 35.6687C44.1245 33.864 44.7965 31.737 44.7965 29.6692H44.8C44.8 26.3685 43.1439 23.1872 42.1613 21.5901ZM39.5354 36.0403C38.829 34.859 37.4876 33.1412 35.5076 32.0539C33.4112 30.9027 30.5652 30.4718 26.9384 32.1961C26.8597 32.2334 26.7812 32.2715 26.7028 32.3104C26.7951 32.4847 26.9018 32.6591 27.0218 32.8325C27.9744 34.2106 29.7095 35.4762 31.7443 36.2429C33.7759 37.0083 36.0829 37.2619 38.1752 36.6131C38.6403 36.4688 39.0956 36.2794 39.5354 36.0404V36.0403ZM48.7794 32.0539C46.7994 33.1412 45.4581 34.8588 44.7515 36.0403C45.1914 36.2792 45.6465 36.4686 46.1118 36.6129C48.2041 37.2617 50.5111 37.0083 52.5427 36.2428C54.5775 35.4761 56.3125 34.2105 57.2652 32.8324C57.3851 32.659 57.4919 32.4845 57.5842 32.3102C57.5058 32.2714 57.4273 32.2333 57.3486 32.196C53.7218 30.4717 50.8759 30.9026 48.7794 32.0538V32.0539ZM47.1732 43.2889C45.6182 44.9354 45.0663 47.2282 44.8535 48.7467C47.4571 48.3881 54.2455 47.0459 58.6631 42.4796C52.4397 40.2356 49.0382 41.3143 47.1732 43.2888V43.2889ZM39.4721 48.7467C39.2592 47.2282 38.7073 44.9354 37.1523 43.2889C35.2873 41.3144 31.8858 40.2357 25.6624 42.4797C30.0801 47.0461 36.8684 48.3881 39.4721 48.7469V48.7467Z" fill="#1C6F0A"/>
<path d="M49.6583 56.0352C49.6583 56.7522 49.4146 57.4016 49.0206 57.8716C48.6266 58.3416 48.0823 58.6323 47.4812 58.6323C46.8799 58.6323 46.3356 58.3416 45.9417 57.8716C45.8919 57.8123 45.8447 57.7501 45.8 57.6854C45.7552 57.7501 45.708 57.8123 45.6582 57.8716C45.2642 58.3416 44.7199 58.6323 44.1187 58.6323C43.5175 58.6323 42.9732 58.3416 42.5793 57.8716C42.5295 57.8123 42.4823 57.7501 42.4375 57.6854C42.3928 57.7501 42.3456 57.8123 42.2958 57.8716C41.9018 58.3416 41.3575 58.6323 40.7563 58.6323C40.1551 58.6323 39.6109 58.3416 39.2169 57.8716C39.1671 57.8123 39.1199 57.7501 39.0751 57.6854C39.0304 57.7501 38.983 57.8123 38.9334 57.8716C38.5394 58.3416 37.9951 58.6323 37.3939 58.6323C36.7927 58.6323 36.2485 58.3416 35.8545 57.8716C35.4605 57.4016 35.2168 56.7524 35.2168 56.0352H36.2088C36.2088 56.4257 36.3415 56.7791 36.5559 57.0349C36.7704 57.2907 37.0667 57.449 37.3939 57.449C37.7214 57.449 38.0176 57.2907 38.2322 57.0349C38.4466 56.7791 38.5792 56.4257 38.5792 56.0352H39.5711C39.5711 56.4257 39.7037 56.7791 39.9183 57.0349C40.1328 57.2907 40.4291 57.449 40.7563 57.449C41.0838 57.449 41.38 57.2907 41.5944 57.0349C41.809 56.7791 41.9416 56.4257 41.9416 56.0352H42.9335C42.9335 56.4257 43.0661 56.7791 43.2807 57.0349C43.4951 57.2907 43.7915 57.449 44.1187 57.449C44.446 57.449 44.7424 57.2907 44.9568 57.0349C45.1714 56.7791 45.304 56.4257 45.304 56.0352H46.2959C46.2959 56.4257 46.4285 56.7791 46.6429 57.0349C46.8575 57.2907 47.1537 57.449 47.4812 57.449C47.8084 57.449 48.1048 57.2907 48.3192 57.0349C48.5338 56.7791 48.6663 56.4257 48.6663 56.0352H49.6583Z" fill="#1C6F0A"/>
<path d="M51.8245 57.6504C51.8245 58.5886 51.5076 59.4382 50.9954 60.053C50.4832 60.668 49.7755 61.0483 48.9941 61.0483C48.2125 61.0483 47.505 60.668 46.9928 60.053C46.9281 59.9755 46.8667 59.8941 46.8085 59.8093C46.7503 59.894 46.6889 59.9755 46.6243 60.053C46.1121 60.668 45.4044 61.0483 44.623 61.0483C43.8414 61.0483 43.1339 60.668 42.6216 60.053C42.557 59.9755 42.4956 59.8941 42.4374 59.8093C42.3792 59.894 42.3177 59.9755 42.2532 60.053C41.7409 60.668 41.0334 61.0483 40.2518 61.0483C39.4703 61.0483 38.7627 60.668 38.2505 60.053C38.1859 59.9755 38.1245 59.8941 38.0663 59.8093C38.0081 59.894 37.9467 59.9755 37.882 60.053C37.3698 60.668 36.6621 61.0483 35.8807 61.0483C35.0991 61.0483 34.3916 60.668 33.8794 60.053C33.3672 59.4382 33.0503 58.5886 33.0503 57.6504H34.3399C34.3399 58.1613 34.5123 58.6238 34.7911 58.9585C35.0698 59.2932 35.4552 59.5001 35.8807 59.5001C36.3063 59.5001 36.6916 59.2932 36.9703 58.9585C37.2491 58.6238 37.4216 58.1613 37.4216 57.6504H38.7111C38.7111 58.1613 38.8836 58.6238 39.1623 58.9585C39.4411 59.2932 39.8264 59.5001 40.252 59.5001C40.6775 59.5001 41.0627 59.2932 41.3416 58.9585C41.6204 58.6238 41.7928 58.1613 41.7928 57.6504H43.0824C43.0824 58.1613 43.2549 58.6238 43.5336 58.9585C43.8124 59.2932 44.1977 59.5001 44.6232 59.5001C45.0488 59.5001 45.4341 59.2932 45.7129 58.9585C45.9916 58.6238 46.1641 58.1613 46.1641 57.6504H47.4537C47.4537 58.1613 47.6261 58.6238 47.9049 58.9585C48.1836 59.2932 48.5689 59.5001 48.9945 59.5001C49.4201 59.5001 49.8052 59.2932 50.0841 58.9585C50.3629 58.6238 50.5353 58.1613 50.5353 57.6504H51.8249H51.8245Z" fill="#1C6F0A"/>
</svg>
